<?xml version="1.0" encoding="utf-8"?>
<!-- Generator: Adobe Illustrator 22.0.1, SVG Export Plug-In . SVG Version: 6.00 Build 0)  -->
<svg version="1.1" id="Layer_1" xmlns="http://www.w3.org/2000/svg" xmlns:xlink="http://www.w3.org/1999/xlink" x="0px" y="0px"
	 viewBox="0 0 230 230" style="enable-background:new 0 0 230 230;" xml:space="preserve">
<style type="text/css">
	.st0{fill:#F39200;}
	.st1{fill:#FFFFFF;}
</style>
<g>
	<rect x="1.7" y="2.4" class="st0" width="226.8" height="225.8"/>
	<g>
		<polygon class="st1" points="23.5,151.1 33.1,151.1 55.3,185.4 55.3,151.1 65.2,151.1 65.2,203.2 55.7,203.2 33.5,169.1 
			33.5,203.2 23.5,203.2 		"/>
		<g>
			<path class="st1" d="M112.2,136.9c1.4,0,2.6,0.5,3.6,1.5c1,1,1.5,2.2,1.5,3.6c0,1.4-0.5,2.6-1.5,3.6c-1,1-2.2,1.5-3.6,1.5
				c-1.4,0-2.6-0.5-3.6-1.5c-1-1-1.5-2.2-1.5-3.6c0-1.4,0.5-2.6,1.5-3.6C109.6,137.4,110.8,136.9,112.2,136.9 M90.6,136.9
				c1.4,0,2.6,0.5,3.6,1.5c1,1,1.5,2.2,1.5,3.6c0,1.4-0.5,2.6-1.5,3.6c-1,1-2.2,1.5-3.6,1.5c-1.4,0-2.6-0.5-3.6-1.5
				c-1-1-1.5-2.2-1.5-3.6c0-1.4,0.5-2.6,1.5-3.6C88,137.4,89.2,136.9,90.6,136.9 M101.3,159.5c-4.8,0-8.9,1.7-12.2,5
				c-3.3,3.4-4.9,7.6-4.9,12.8c0,5.8,2.1,10.3,6.2,13.7c3.2,2.6,6.9,3.9,11.1,3.9c4.7,0,8.7-1.7,12-5.1c3.3-3.4,5-7.6,5-12.6
				c0-5-1.7-9.2-5-12.6C110.1,161.3,106.1,159.5,101.3,159.5 M101.4,149.8c7.4,0,13.7,2.7,19,8c5.3,5.3,8,11.8,8,19.5
				c0,7.6-2.6,14-7.9,19.3c-5.2,5.3-11.6,7.9-19,7.9c-7.8,0-14.3-2.7-19.5-8.1c-5.2-5.4-7.8-11.8-7.8-19.3c0-5,1.2-9.6,3.6-13.7
				c2.4-4.2,5.7-7.5,9.9-9.9C92,151.1,96.6,149.8,101.4,149.8"/>
			<path class="st1" d="M176.1,194.4h10.3c8.7-0.9,13.3-9.1,13.3-16.9c0-7.3-3.6-16.2-13.6-17.2l0,0h-10V194.4z M186.5,203.3
				L186.5,203.3l-20,0v-51.9l20.4,0c15,1.4,21.7,14.1,21.7,26C208.6,191.3,199.1,202.4,186.5,203.3"/>
			<path class="st1" d="M142.3,205.2c-4,0-9.9-1.6-14.5-7.4l5.8-7.5c0.1,0.1,2.1,2.1,2.1,2.2c3.9,3.7,7,3,7,3l0.3,0
				c1.7-0.2,2.8-1.2,3.7-2.6c0.7-1.3,0.9-2.7,0.9-3v-38.6h9.8v39l0,0.1c-0.3,4.5-3.3,13.5-12.9,14.8
				C143.9,205.2,143.1,205.2,142.3,205.2"/>
		</g>
	</g>
</g>
</svg>
