<svg xmlns="http://www.w3.org/2000/svg" xmlns:xlink="http://www.w3.org/1999/xlink" viewBox="0 0 20 20"><style>.st0{fill:none;} .st1{fill:#F6BB60;} .st2{fill:#FFFFFF;} .st3{clip-path:url(#SVGID_2_);fill:#F6B522;} .st4{fill:url(#SVGID_3_);} .st5{clip-path:url(#SVGID_5_);fill:#231D1D;} .st6{clip-path:url(#SVGID_5_);fill:#92702A;} .st7{clip-path:url(#SVGID_5_);fill:url(#SVGID_6_);} .st8{clip-path:url(#SVGID_5_);fill:#5D5D5F;} .st9{clip-path:url(#SVGID_8_);fill:url(#SVGID_9_);} .st10{clip-path:url(#SVGID_11_);fill:#1F6AB2;} .st11{clip-path:url(#SVGID_11_);fill:#5D5D5F;} .st12{clip-path:url(#SVGID_13_);fill:url(#SVGID_14_);}</style><pattern y="580" width="69" height="69" patternUnits="userSpaceOnUse" id="Polka_Dot_Pattern" viewBox="2.125 -70.8965 69 69" overflow="visible"><path class="st0" d="M2.125-70.897h69v69h-69z"/><path class="st1" d="M2.125-70.897h69v69h-69z"/><path class="st2" d="M61.773-71.653c.017.072.007.127-.026.19-.053.1-.113.063-.165.128-.05.062-.1.276-.08.362-.17.058-.01.227-.015.35-.002.05-.04.105-.045.16-.01.12.018.267.068.37.097.2.268.414.435.545.19.15.365.572.61.63.176.043.383-.104.542-.142.18-.043.397.01.57-.052.223-.08.128-.337.29-.45.104-.075.286-.01.405-.05.2-.07.34-.264.376-.46.016-.083.01-.146.04-.222.037-.103.11-.16.09-.293-.01-.06-.053-.12-.065-.186-.022-.115.002-.224 0-.337-.003-.2.017-.38-.078-.55-.38-.688-1.236-.93-1.974-.79-.18.035-.286.127-.44.208-.172.088-.14.166-.32.223-.08.028-.216.125-.215.225.002.115.005.05.012.17-.02.01-.02-.006-.03-.026M54.105-71.653c.018.072.008.127-.025.19-.053.1-.113.063-.165.128-.05.062-.1.276-.08.362-.17.058-.01.227-.015.35-.002.05-.04.105-.045.16-.01.12.018.267.068.37.097.2.268.414.435.545.19.15.365.572.61.63.176.043.383-.104.542-.142.18-.043.397.01.57-.052.223-.08.128-.337.29-.45.104-.075.286-.01.405-.05.2-.07.34-.264.376-.46.017-.083.01-.146.04-.222.038-.103.11-.16.09-.293-.01-.06-.052-.12-.064-.186-.022-.115.002-.224 0-.337-.003-.2.017-.38-.078-.55-.38-.688-1.236-.93-1.974-.79-.18.035-.287.127-.442.208-.17.088-.14.166-.32.223-.08.028-.215.125-.214.225.002.115.005.05.012.17-.02.01-.02-.006-.03-.026M46.44-71.653c.017.072.006.127-.027.19-.053.1-.112.063-.165.128-.05.062-.1.276-.08.362-.168.058-.01.227-.014.35-.003.05-.04.105-.045.16-.01.12.016.267.067.37.097.2.268.414.435.545.19.15.365.572.608.63.178.043.384-.104.543-.142.18-.043.398.01.572-.052.22-.08.127-.337.288-.45.104-.075.287-.01.406-.05.2-.07.338-.264.375-.46.015-.083.01-.146.038-.222.04-.103.112-.16.09-.293-.01-.06-.05-.12-.064-.186-.023-.115 0-.224 0-.337-.003-.2.016-.38-.078-.55-.38-.688-1.237-.93-1.975-.79-.18.035-.287.127-.442.208-.17.088-.14.166-.318.223-.08.028-.216.125-.215.225 0 .115.005.05.012.17-.02.01-.022-.006-.03-.026M38.773-71.653c.017.072.007.127-.026.19-.053.1-.113.063-.165.128-.05.062-.1.276-.08.362-.17.058-.01.227-.015.35-.002.05-.04.105-.045.16-.01.12.018.267.068.37.097.2.268.414.435.545.19.15.365.572.61.63.176.043.383-.104.542-.142.18-.043.397.01.57-.052.223-.08.128-.337.29-.45.104-.075.286-.01.405-.05.2-.07.34-.264.376-.46.016-.083.01-.146.04-.222.037-.103.11-.16.09-.293-.01-.06-.053-.12-.065-.186-.022-.115.002-.224 0-.337-.003-.2.017-.38-.078-.55-.38-.688-1.236-.93-1.974-.79-.18.035-.286.127-.44.208-.172.088-.14.166-.32.223-.08.028-.216.125-.215.225.002.115.005.05.012.17-.02.01-.02-.006-.03-.026M31.105-71.653c.018.072.008.127-.025.19-.053.1-.113.063-.165.128-.05.062-.1.276-.08.362-.17.058-.01.227-.015.35-.002.05-.04.105-.045.16-.01.12.018.267.068.37.097.2.268.414.435.545.19.15.365.572.61.63.176.043.382-.104.542-.142.18-.043.397.01.57-.052.223-.08.128-.337.29-.45.104-.075.286-.01.405-.05.2-.07.34-.264.376-.46.017-.083.01-.146.04-.222.038-.103.11-.16.09-.293-.01-.06-.052-.12-.064-.186-.022-.115.002-.224 0-.337-.003-.2.017-.38-.078-.55-.38-.688-1.236-.93-1.974-.79-.18.035-.287.127-.442.208-.17.088-.14.166-.32.223-.08.028-.215.125-.214.225.002.115.005.05.012.17-.02.01-.02-.006-.03-.026M23.44-71.653c.016.072.006.127-.027.19-.053.1-.112.063-.165.128-.05.062-.1.276-.08.362-.168.058-.01.227-.014.35-.003.05-.04.105-.045.16-.01.12.016.267.067.37.097.2.268.414.435.545.19.15.365.572.608.63.178.043.384-.104.543-.142.18-.043.398.01.57-.052.223-.08.13-.337.29-.45.104-.075.287-.01.406-.05.198-.07.338-.264.375-.46.015-.083.01-.146.038-.222.04-.103.112-.16.09-.293-.01-.06-.05-.12-.064-.186-.023-.115 0-.224 0-.337-.003-.2.016-.38-.078-.55-.38-.688-1.237-.93-1.975-.79-.18.035-.287.127-.442.208-.17.088-.14.166-.318.223-.08.028-.216.125-.215.225 0 .115.005.05.012.17-.02.01-.022-.006-.03-.026M15.773-71.653c.017.072.007.127-.026.19-.053.1-.113.063-.165.128-.05.062-.1.276-.08.362-.17.058-.01.227-.015.35-.002.05-.04.105-.045.16-.01.12.017.267.068.37.097.2.268.414.435.545.19.15.365.572.61.63.176.043.382-.104.542-.142.18-.043.397.01.57-.052.223-.08.128-.337.29-.45.103-.075.286-.01.405-.05.2-.07.34-.264.376-.46.016-.083.01-.146.04-.222.037-.103.11-.16.09-.293-.01-.06-.053-.12-.065-.186-.022-.115.002-.224 0-.337-.003-.2.017-.38-.078-.55-.38-.688-1.236-.93-1.975-.79-.18.035-.286.127-.44.208-.172.088-.14.166-.32.223-.08.028-.216.125-.215.225.002.115.005.05.012.17-.02.01-.02-.006-.03-.026M8.105-71.653c.018.072.008.127-.025.19-.053.1-.113.063-.165.128-.05.062-.1.276-.08.362-.17.058-.01.227-.015.35-.002.05-.04.105-.045.16-.01.12.018.267.068.37.098.2.268.414.435.545.19.15.365.572.61.63.176.043.383-.104.542-.142.18-.043.397.01.57-.052.223-.08.13-.337.29-.45.104-.075.286-.01.405-.05.2-.07.34-.264.376-.46.017-.083.01-.146.04-.222.04-.103.11-.16.09-.293-.01-.06-.05-.12-.064-.186-.022-.115.002-.224 0-.337-.003-.2.017-.38-.078-.55-.38-.688-1.236-.93-1.974-.79-.18.035-.287.127-.442.208-.17.088-.14.166-.32.223-.08.028-.214.125-.213.225 0 .115.003.05.01.17-.02.01-.02-.006-.03-.026M.44-71.653c.017.072.007.127-.027.19-.052.1-.113.063-.165.128-.05.062-.1.276-.08.362-.168.058-.01.227-.014.35-.003.05-.04.105-.045.16-.01.12.016.267.067.37.097.2.268.414.435.545.19.15.365.572.608.63.178.043.384-.104.543-.142.18-.043.398.01.572-.052.22-.08.127-.337.288-.45.104-.075.287-.01.406-.05.2-.072.338-.264.375-.46.016-.083.01-.146.04-.222.037-.103.11-.16.09-.293-.01-.06-.052-.12-.066-.186-.022-.115 0-.224 0-.337-.003-.2.016-.38-.078-.55-.38-.688-1.237-.93-1.975-.79-.18.035-.286.127-.442.208-.17.088-.138.166-.318.223-.08.028-.215.125-.215.225.002.115.005.05.012.17-.02.01-.022-.006-.03-.026"/><g><path class="st2" d="M69.44-71.653c.016.072.007.127-.027.19-.052.1-.113.063-.165.128-.05.062-.1.276-.08.362-.168.058-.01.227-.014.35-.003.05-.04.105-.045.16-.01.12.016.267.067.37.097.2.268.414.435.545.19.15.365.572.608.63.178.043.384-.104.543-.142.18-.043.398.01.572-.052.22-.08.127-.337.288-.45.104-.075.287-.01.406-.05.2-.072.338-.264.375-.46.015-.083.01-.146.038-.222.038-.103.112-.16.09-.293-.01-.06-.05-.12-.064-.186-.022-.115 0-.224 0-.337-.003-.2.016-.38-.078-.55-.38-.688-1.237-.93-1.975-.79-.18.035-.287.127-.442.208-.17.088-.14.166-.318.223-.08.028-.216.125-.215.225.002.115.005.05.012.17-.02.01-.022-.006-.03-.026"/></g><path class="st2" d="M.495-71.653c.018.072.008.127-.026.19-.053.1-.114.063-.166.128-.05.062-.1.276-.08.362-.168.058-.01.227-.014.35-.002.05-.04.105-.045.16-.01.12.017.267.068.37.097.2.268.414.435.545.19.15.365.572.608.63.178.043.384-.104.543-.142.18-.043.397.01.57-.052.222-.08.128-.337.29-.45.103-.075.286-.01.405-.05.2-.072.34-.264.376-.46.017-.083.01-.146.04-.222.038-.103.11-.16.09-.293-.01-.06-.05-.12-.064-.186-.022-.115.002-.224 0-.337-.003-.2.017-.38-.078-.55-.38-.688-1.236-.93-1.975-.79-.18.035-.286.127-.442.208-.17.088-.137.166-.317.223-.08.028-.215.125-.215.225.002.115.005.05.012.17-.02.01-.022-.006-.03-.026"/><g><path class="st2" d="M69.44-64c.016.07.006.126-.027.19-.053.1-.112.062-.165.127-.05.063-.1.277-.08.363-.168.057-.01.226-.014.35-.003.05-.04.105-.045.16-.01.12.016.266.067.37.097.2.268.414.435.544.19.15.365.573.608.63.178.043.384-.103.543-.14.18-.044.398.008.572-.054.22-.08.127-.337.288-.45.104-.074.287-.01.406-.05.2-.07.338-.264.375-.46.015-.083.01-.145.038-.222.04-.102.112-.16.09-.293-.01-.06-.05-.12-.064-.186-.023-.115 0-.225 0-.338-.003-.2.016-.38-.078-.55-.38-.687-1.237-.93-1.975-.79-.18.035-.287.127-.442.208-.17.088-.14.166-.318.224-.08.026-.216.124-.215.223 0 .116.005.05.012.17-.02.01-.022-.006-.03-.026M61.778-64c.018.07.008.126-.026.19-.052.1-.112.062-.165.127-.05.063-.1.277-.08.363-.168.057-.008.226-.014.35-.002.05-.04.105-.045.16-.01.12.017.266.068.37.097.2.268.414.435.544.19.15.366.573.61.63.177.043.383-.103.543-.14.18-.044.397.008.57-.054.223-.08.128-.337.29-.45.103-.074.286-.01.405-.05.2-.07.34-.264.376-.46.016-.083.01-.145.04-.222.037-.102.11-.16.09-.293-.01-.06-.053-.12-.065-.186-.023-.115 0-.225 0-.338-.004-.2.016-.38-.08-.55-.38-.687-1.235-.93-1.974-.79-.18.035-.286.127-.44.208-.172.088-.14.166-.32.224-.08.026-.216.124-.215.223.003.116.006.05.013.17-.02.01-.02-.006-.03-.026M54.118-64c.018.07.007.126-.026.19-.052.1-.112.062-.165.127-.05.063-.1.277-.08.363-.168.057-.008.226-.014.35-.002.05-.04.105-.045.16-.01.12.017.266.068.37.097.2.268.414.435.544.19.15.366.573.61.63.177.043.383-.103.542-.14.18-.044.398.008.572-.054.22-.08.127-.337.288-.45.104-.074.287-.01.406-.05.2-.07.34-.264.376-.46.016-.083.01-.145.04-.222.037-.102.11-.16.09-.293-.01-.06-.053-.12-.066-.186-.02-.115.002-.225 0-.338-.002-.2.018-.38-.077-.55-.38-.687-1.235-.93-1.974-.79-.18.035-.286.127-.442.208-.17.088-.138.166-.318.224-.08.026-.216.124-.215.223.003.116.006.05.013.17-.02.01-.022-.006-.03-.026M46.458-64c.017.07.007.126-.026.19-.053.1-.113.062-.165.127-.05.063-.1.277-.08.363-.168.057-.01.226-.015.35-.002.05-.04.105-.045.16-.01.12.018.266.068.37.098.2.268.414.435.544.19.15.365.573.61.63.176.043.383-.103.542-.14.18-.044.397.008.57-.054.223-.08.13-.337.29-.45.104-.074.286-.01.405-.05.2-.07.34-.264.376-.46.016-.083.01-.145.04-.222.038-.102.11-.16.09-.293-.01-.06-.052-.12-.065-.186-.022-.115.002-.225 0-.338-.003-.2.017-.38-.078-.55-.38-.687-1.236-.93-1.974-.79-.18.035-.287.127-.442.208-.17.088-.14.166-.32.224-.08.026-.214.124-.214.223.002.116.005.05.012.17-.02.01-.02-.006-.03-.026M38.797-64c.018.07.008.126-.025.19-.053.1-.113.062-.166.127-.05.063-.1.277-.08.363-.168.057-.008.226-.014.35-.002.05-.04.105-.045.16-.01.12.017.266.068.37.097.2.268.414.435.544.19.15.365.573.61.63.176.043.382-.103.542-.14.18-.044.397.008.57-.054.223-.08.128-.337.29-.45.103-.074.286-.01.405-.05.2-.07.34-.264.376-.46.016-.083.01-.145.04-.222.037-.102.11-.16.09-.293-.01-.06-.053-.12-.065-.186-.022-.115.002-.225 0-.338-.003-.2.017-.38-.078-.55-.38-.687-1.236-.93-1.975-.79-.18.035-.286.127-.44.208-.172.088-.14.166-.32.224-.08.026-.216.124-.215.223.002.116.005.05.012.17-.02.01-.02-.006-.03-.026M31.137-64c.017.07.007.126-.026.19-.052.1-.11.062-.164.127-.05.063-.1.277-.08.363-.168.057-.01.226-.014.35-.003.05-.04.105-.045.16-.01.12.017.266.068.37.097.2.268.414.435.544.19.15.364.573.608.63.177.043.384-.103.543-.14.18-.044.398.008.572-.054.222-.08.128-.337.288-.45.105-.074.287-.01.407-.05.2-.07.338-.264.376-.46.015-.083.01-.145.038-.222.04-.102.112-.16.09-.293-.008-.06-.05-.12-.063-.186-.022-.115.002-.225 0-.338-.002-.2.017-.38-.078-.55-.38-.687-1.237-.93-1.975-.79-.18.035-.287.127-.442.208-.17.088-.14.166-.318.224-.082.026-.216.124-.215.223 0 .116.005.05.01.17-.02.01-.02-.006-.03-.026M23.477-64c.017.07.007.126-.026.19-.052.1-.112.062-.164.127-.05.063-.1.277-.08.363-.168.057-.01.226-.015.35 0 .05-.04.105-.043.16-.01.12.017.266.067.37.098.2.268.414.435.544.19.15.364.573.608.63.177.043.384-.103.543-.14.18-.044.398.008.572-.054.222-.08.128-.337.288-.45.105-.074.287-.01.406-.05.2-.07.34-.264.376-.46.016-.083.01-.145.04-.222.038-.102.11-.16.09-.293-.01-.06-.052-.12-.065-.186-.022-.115.002-.225 0-.338-.003-.2.017-.38-.078-.55-.38-.687-1.237-.93-1.975-.79-.18.035-.287.127-.442.208-.17.088-.14.166-.32.224-.08.026-.214.124-.213.223 0 .116.004.05.01.17-.02.01-.02-.006-.03-.026M15.816-64c.017.07.007.126-.026.19-.053.1-.112.062-.165.127-.05.063-.1.277-.08.363-.168.057-.008.226-.014.35-.002.05-.04.105-.044.16-.01.12.017.266.068.37.097.2.268.414.435.544.19.15.363.573.607.63.177.043.384-.103.543-.14.18-.044.398.008.57-.054.223-.08.13-.337.29-.45.104-.074.287-.01.406-.05.2-.07.34-.264.376-.46.015-.083.01-.145.038-.222.04-.102.112-.16.09-.293-.01-.06-.05-.12-.064-.186-.022-.115.002-.225 0-.338-.002-.2.017-.38-.077-.55-.38-.687-1.238-.93-1.976-.79-.18.035-.287.127-.442.208-.17.088-.14.166-.318.224-.08.026-.216.124-.215.223 0 .116.004.05.01.17-.02.01-.02-.006-.03-.026M8.156-64c.017.07.007.126-.026.19-.053.1-.112.062-.165.127-.05.063-.1.277-.08.363-.168.057-.01.226-.014.35-.002.05-.04.105-.044.16-.01.12.017.266.068.37.097.2.268.414.435.544.19.15.363.573.607.63.177.043.384-.103.543-.14.18-.044.398.008.57-.054.223-.08.13-.337.29-.45.104-.074.287-.01.406-.05.2-.07.34-.264.376-.46.015-.083.01-.145.038-.222.04-.102.112-.16.09-.293-.01-.06-.05-.12-.064-.186-.022-.115.002-.225 0-.338-.002-.2.017-.38-.077-.55-.38-.687-1.238-.93-1.976-.79-.18.035-.287.127-.442.208-.17.088-.14.166-.318.224-.08.026-.216.124-.215.223 0 .116.004.05.01.17-.02.01-.02-.006-.03-.026M.495-64c.018.07.007.126-.026.19-.053.1-.113.062-.166.127-.05.063-.1.277-.08.363-.168.057-.01.226-.014.35-.002.05-.04.105-.045.16-.01.12.017.266.068.37.097.2.268.414.435.544.19.15.365.573.61.63.176.043.382-.103.54-.14.182-.044.4.008.573-.054.222-.08.128-.337.29-.45.103-.074.286-.01.405-.05.2-.07.34-.264.376-.46.017-.083.01-.145.04-.222.038-.102.11-.16.09-.293-.01-.06-.052-.12-.064-.186-.022-.115.002-.225 0-.338-.003-.2.017-.38-.078-.55-.38-.687-1.236-.93-1.975-.79-.18.035-.286.127-.442.208-.17.088-.137.166-.317.224-.08.026-.216.124-.215.223.002.116.005.05.012.17-.02.01-.022-.006-.03-.026"/><g><path class="st2" d="M69.44-56.348c.016.073.006.127-.027.19-.053.1-.112.063-.165.13-.05.06-.1.275-.08.36-.168.06-.01.228-.014.35-.003.05-.04.106-.045.162-.01.12.016.265.067.37.097.198.268.413.435.544.19.148.365.572.608.63.178.043.384-.104.543-.142.18-.043.398.01.572-.053.22-.08.127-.337.288-.45.104-.074.287-.01.406-.05.2-.07.338-.263.375-.46.015-.083.01-.145.038-.22.04-.104.112-.16.09-.294-.01-.063-.05-.12-.064-.188-.023-.114 0-.223 0-.337-.003-.2.016-.38-.078-.55-.38-.687-1.237-.928-1.975-.79-.18.036-.287.127-.442.208-.17.088-.14.166-.318.224-.08.026-.216.124-.215.224 0 .116.005.05.012.17-.02.01-.022-.005-.03-.026M61.778-56.348c.018.073.008.127-.026.19-.052.1-.112.063-.165.13-.05.06-.1.275-.08.36-.168.06-.008.228-.014.35-.002.05-.04.106-.045.162-.01.12.017.265.068.37.097.198.268.413.435.544.19.148.366.572.61.63.177.043.383-.104.543-.142.18-.043.397.01.57-.053.223-.08.128-.337.29-.45.103-.074.286-.01.405-.05.2-.07.34-.263.376-.46.016-.083.01-.145.04-.22.037-.104.11-.16.09-.294-.01-.063-.053-.12-.065-.188-.023-.114 0-.223 0-.337-.004-.2.016-.38-.08-.55-.38-.687-1.235-.928-1.974-.79-.18.036-.286.127-.44.208-.172.088-.14.166-.32.224-.08.026-.216.124-.215.224.003.116.006.05.013.17-.02.01-.02-.005-.03-.026M54.118-56.348c.018.073.007.127-.026.19-.052.1-.112.063-.165.13-.05.06-.1.275-.08.36-.168.06-.008.228-.014.35-.002.05-.04.106-.045.162-.01.12.017.265.068.37.097.198.268.413.435.544.19.148.366.572.61.63.177.043.383-.104.542-.142.18-.043.398.01.572-.053.22-.08.127-.337.288-.45.104-.074.287-.01.406-.05.2-.07.34-.263.376-.46.016-.083.01-.145.04-.22.037-.104.11-.16.09-.294-.01-.063-.053-.12-.066-.188-.02-.114.002-.223 0-.337-.002-.2.018-.38-.077-.55-.38-.687-1.235-.928-1.974-.79-.18.036-.286.127-.442.208-.17.088-.138.166-.318.224-.08.026-.216.124-.215.224.003.116.006.05.013.17-.02.01-.022-.005-.03-.026M46.458-56.348c.017.073.007.127-.026.19-.053.1-.113.063-.165.13-.05.06-.1.275-.08.36-.168.06-.01.228-.015.35-.002.05-.04.106-.045.162-.01.12.018.265.068.37.098.198.268.413.435.544.19.148.365.572.61.63.176.043.383-.104.542-.142.18-.043.397.01.57-.053.223-.08.13-.337.29-.45.104-.074.286-.01.405-.05.2-.07.34-.263.376-.46.016-.083.01-.145.04-.22.038-.104.11-.16.09-.294-.01-.063-.052-.12-.065-.188-.022-.114.002-.223 0-.337-.003-.2.017-.38-.078-.55-.38-.687-1.236-.928-1.974-.79-.18.036-.287.127-.442.208-.17.088-.14.166-.32.224-.08.026-.214.124-.214.224.002.116.005.05.012.17-.02.01-.02-.005-.03-.026M38.797-56.348c.018.073.008.127-.025.19-.053.1-.113.063-.166.13-.05.06-.1.275-.08.36-.168.06-.008.228-.014.35-.002.05-.04.106-.045.162-.01.12.017.265.068.37.097.198.268.413.435.544.19.148.365.572.61.63.176.043.382-.104.542-.142.18-.043.397.01.57-.053.223-.08.128-.337.29-.45.103-.074.286-.01.405-.05.2-.07.34-.263.376-.46.016-.083.01-.145.04-.22.037-.104.11-.16.09-.294-.01-.063-.053-.12-.065-.188-.022-.114.002-.223 0-.337-.003-.2.017-.38-.078-.55-.38-.687-1.236-.928-1.975-.79-.18.036-.286.127-.44.208-.172.088-.14.166-.32.224-.08.026-.216.124-.215.224.002.116.005.05.012.17-.02.01-.02-.005-.03-.026M31.137-56.348c.017.073.007.127-.026.19-.052.1-.11.063-.164.13-.05.06-.1.275-.08.36-.168.06-.01.228-.014.35-.003.05-.04.106-.045.162-.01.12.017.265.068.37.097.198.268.413.435.544.19.148.364.572.608.63.177.043.384-.104.543-.142.18-.043.398.01.572-.053.222-.08.128-.337.288-.45.105-.074.287-.01.407-.05.2-.07.338-.263.376-.46.015-.083.01-.145.038-.22.04-.104.112-.16.09-.294-.008-.063-.05-.12-.063-.188-.022-.114.002-.223 0-.337-.002-.2.017-.38-.078-.55-.38-.687-1.237-.928-1.975-.79-.18.036-.287.127-.442.208-.17.088-.14.166-.318.224-.082.026-.216.124-.215.224 0 .116.005.05.01.17-.02.01-.02-.005-.03-.026M23.477-56.348c.017.073.007.127-.026.19-.052.1-.112.063-.164.13-.05.06-.1.275-.08.36-.168.06-.01.228-.015.35 0 .05-.04.106-.043.162-.01.12.017.265.067.37.098.198.268.413.435.544.19.148.364.572.608.63.177.043.384-.104.543-.142.18-.043.398.01.572-.053.222-.08.128-.337.288-.45.105-.074.287-.01.406-.05.2-.07.34-.263.376-.46.016-.083.01-.145.04-.22.038-.104.11-.16.09-.294-.01-.063-.052-.12-.065-.188-.022-.114.002-.223 0-.337-.003-.2.017-.38-.078-.55-.38-.687-1.237-.928-1.975-.79-.18.036-.287.127-.442.208-.17.088-.14.166-.32.224-.08.026-.214.124-.213.224 0 .116.004.05.01.17-.02.01-.02-.005-.03-.026M15.816-56.348c.017.073.007.127-.026.19-.053.1-.112.063-.165.13-.05.06-.1.275-.08.36-.168.06-.008.228-.014.35-.002.05-.04.106-.044.162-.01.12.017.265.068.37.097.198.268.413.435.544.19.148.363.572.607.63.177.043.384-.104.543-.142.18-.043.398.01.57-.053.223-.08.13-.337.29-.45.104-.074.287-.01.406-.05.2-.07.34-.263.376-.46.015-.083.01-.145.038-.22.04-.104.112-.16.09-.294-.01-.063-.05-.12-.064-.188-.022-.114.002-.223 0-.337-.002-.2.017-.38-.077-.55-.38-.687-1.238-.928-1.976-.79-.18.036-.287.127-.442.208-.17.088-.14.166-.318.224-.08.026-.216.124-.215.224 0 .116.004.05.01.17-.02.01-.02-.005-.03-.026M8.156-56.348c.017.073.007.127-.026.19-.053.1-.112.063-.165.13-.05.06-.1.275-.08.36-.168.06-.01.228-.014.35-.002.05-.04.106-.044.162-.01.12.017.265.068.37.097.198.268.413.435.544.19.148.363.572.607.63.177.043.384-.104.543-.142.18-.043.398.01.57-.053.223-.08.13-.337.29-.45.104-.074.287-.01.406-.05.2-.07.34-.263.376-.46.015-.083.01-.145.038-.22.04-.104.112-.16.09-.294-.01-.063-.05-.12-.064-.188-.022-.114.002-.223 0-.337-.002-.2.017-.38-.077-.55-.38-.687-1.238-.928-1.976-.79-.18.036-.287.127-.442.208-.17.088-.14.166-.318.224-.08.026-.216.124-.215.224 0 .116.004.05.01.17-.02.01-.02-.005-.03-.026M.495-56.348c.018.073.007.127-.026.19-.053.1-.113.063-.166.13-.05.06-.1.275-.08.36-.168.06-.01.228-.014.35-.002.05-.04.106-.045.162-.01.12.017.265.068.37.097.198.268.413.435.544.19.148.365.572.61.63.176.043.382-.104.54-.142.182-.043.4.01.573-.053.222-.08.128-.337.29-.45.103-.074.286-.01.405-.05.2-.07.34-.263.376-.46.017-.083.01-.145.04-.22.038-.104.11-.16.09-.294-.01-.063-.052-.12-.064-.188-.022-.114.002-.223 0-.337-.003-.2.017-.38-.078-.55-.38-.687-1.236-.928-1.975-.79-.18.036-.286.127-.442.208-.17.088-.137.166-.317.224-.08.026-.216.124-.215.224.002.116.005.05.012.17-.02.01-.022-.005-.03-.026"/></g><g><path class="st2" d="M69.44-48.695c.016.072.006.127-.027.19-.053.1-.112.063-.165.128-.05.062-.1.276-.08.362-.168.058-.01.227-.014.35-.003.05-.04.105-.045.16-.01.12.016.267.067.37.097.2.268.414.435.545.19.15.365.572.608.63.178.043.384-.104.543-.142.18-.043.398.01.572-.052.22-.08.127-.337.288-.45.104-.075.287-.01.406-.05.2-.07.338-.264.375-.46.015-.083.01-.146.038-.222.04-.103.112-.16.09-.293-.01-.06-.05-.12-.064-.185-.023-.115 0-.224 0-.337-.003-.2.016-.38-.078-.55-.38-.688-1.237-.93-1.975-.79-.18.035-.287.127-.442.208-.17.088-.14.166-.318.223-.08.026-.216.123-.215.223 0 .115.005.05.012.17-.02.01-.022-.006-.03-.026M61.778-48.695c.018.072.008.127-.026.19-.052.1-.112.063-.165.128-.05.062-.1.276-.08.362-.168.058-.008.227-.014.35-.002.05-.04.105-.045.16-.01.12.017.267.068.37.097.2.268.414.435.545.19.15.366.572.61.63.177.043.383-.104.543-.142.18-.043.397.01.57-.052.223-.08.128-.337.29-.45.103-.075.286-.01.405-.05.2-.07.34-.264.376-.46.016-.083.01-.146.04-.222.037-.103.11-.16.09-.293-.01-.06-.053-.12-.065-.185-.023-.115 0-.224 0-.337-.004-.2.016-.38-.08-.55-.38-.688-1.235-.93-1.974-.79-.18.035-.286.127-.44.208-.172.088-.14.166-.32.223-.08.026-.216.123-.215.223.003.115.006.05.013.17-.02.01-.02-.006-.03-.026M54.118-48.695c.018.072.007.127-.026.19-.052.1-.112.063-.165.128-.05.062-.1.276-.08.362-.168.058-.008.227-.014.35-.002.05-.04.105-.045.16-.01.12.017.267.068.37.097.2.268.414.435.545.19.15.366.572.61.63.177.043.383-.104.542-.142.18-.043.398.01.572-.052.22-.08.127-.337.288-.45.104-.075.287-.01.406-.05.2-.07.34-.264.376-.46.016-.083.01-.146.04-.222.037-.103.11-.16.09-.293-.01-.06-.053-.12-.066-.185-.02-.115.002-.224 0-.337-.002-.2.018-.38-.077-.55-.38-.688-1.235-.93-1.974-.79-.18.035-.286.127-.442.208-.17.088-.138.166-.318.223-.08.026-.216.123-.215.223.003.115.006.05.013.17-.02.01-.022-.006-.03-.026M46.458-48.695c.017.072.007.127-.026.19-.053.1-.113.063-.165.128-.05.062-.1.276-.08.362-.168.058-.01.227-.015.35-.002.05-.04.105-.045.16-.01.12.018.267.068.37.098.2.268.414.435.545.19.15.365.572.61.63.176.043.383-.104.542-.142.18-.043.397.01.57-.052.223-.08.13-.337.29-.45.104-.075.286-.01.405-.05.2-.07.34-.264.376-.46.016-.083.01-.146.04-.222.038-.103.11-.16.09-.293-.01-.06-.052-.12-.065-.185-.022-.115.002-.224 0-.337-.003-.2.017-.38-.078-.55-.38-.688-1.236-.93-1.974-.79-.18.035-.287.127-.442.208-.17.088-.14.166-.32.223-.08.026-.214.123-.214.223.002.115.005.05.012.17-.02.01-.02-.006-.03-.026M38.797-48.695c.018.072.008.127-.025.19-.053.1-.113.063-.166.128-.05.062-.1.276-.08.362-.168.058-.008.227-.014.35-.002.05-.04.105-.045.16-.01.12.017.267.068.37.097.2.268.414.435.545.19.15.365.572.61.63.176.043.382-.104.542-.142.18-.043.397.01.57-.052.223-.08.128-.337.29-.45.103-.075.286-.01.405-.05.2-.07.34-.264.376-.46.016-.083.01-.146.04-.222.037-.103.11-.16.09-.293-.01-.06-.053-.12-.065-.185-.022-.115.002-.224 0-.337-.003-.2.017-.38-.078-.55-.38-.688-1.236-.93-1.975-.79-.18.035-.286.127-.44.208-.172.088-.14.166-.32.223-.08.026-.216.123-.215.223.002.115.005.05.012.17-.02.01-.02-.006-.03-.026M31.137-48.695c.017.072.007.127-.026.19-.052.1-.11.063-.164.128-.05.062-.1.276-.08.362-.168.058-.01.227-.014.35-.003.05-.04.105-.045.16-.01.12.017.267.068.37.097.2.268.414.435.545.19.15.364.572.608.63.177.043.384-.104.543-.142.18-.043.398.01.572-.052.222-.08.128-.337.288-.45.105-.075.287-.01.407-.05.2-.07.338-.264.376-.46.015-.083.01-.146.038-.222.04-.103.112-.16.09-.293-.008-.06-.05-.12-.063-.185-.022-.115.002-.224 0-.337-.002-.2.017-.38-.078-.55-.38-.688-1.237-.93-1.975-.79-.18.035-.287.127-.442.208-.17.088-.14.166-.318.223-.082.026-.216.123-.215.223 0 .115.005.05.01.17-.02.01-.02-.006-.03-.026M23.477-48.695c.017.072.007.127-.026.19-.052.1-.112.063-.164.128-.05.062-.1.276-.08.362-.168.058-.01.227-.015.35 0 .05-.04.105-.043.16-.01.12.017.267.067.37.098.2.268.414.435.545.19.15.364.572.608.63.177.043.384-.104.543-.142.18-.043.398.01.572-.052.222-.08.128-.337.288-.45.105-.075.287-.01.406-.05.2-.07.34-.264.376-.46.016-.083.01-.146.04-.222.038-.103.11-.16.09-.293-.01-.06-.052-.12-.065-.185-.022-.115.002-.224 0-.337-.003-.2.017-.38-.078-.55-.38-.688-1.237-.93-1.975-.79-.18.035-.287.127-.442.208-.17.088-.14.166-.32.223-.08.026-.214.123-.213.223 0 .115.004.05.01.17-.02.01-.02-.006-.03-.026M15.816-48.695c.017.072.007.127-.026.19-.053.1-.112.063-.165.128-.05.062-.1.276-.08.362-.168.058-.008.227-.014.35-.002.05-.04.105-.044.16-.01.12.017.267.068.37.097.2.268.414.435.545.19.15.363.572.607.63.177.043.384-.104.543-.142.18-.043.398.01.57-.052.223-.08.13-.337.29-.45.104-.075.287-.01.406-.05.2-.07.34-.264.376-.46.015-.083.01-.146.038-.222.04-.103.112-.16.09-.293-.01-.06-.05-.12-.064-.185-.022-.115.002-.224 0-.337-.002-.2.017-.38-.077-.55-.38-.688-1.238-.93-1.976-.79-.18.035-.287.127-.442.208-.17.088-.14.166-.318.223-.08.026-.216.123-.215.223 0 .115.004.05.01.17-.02.01-.02-.006-.03-.026M8.156-48.695c.017.072.007.127-.026.19-.053.1-.112.063-.165.128-.05.062-.1.276-.08.362-.168.058-.01.227-.014.35-.002.05-.04.105-.044.16-.01.12.017.267.068.37.097.2.268.414.435.545.19.15.363.572.607.63.177.043.384-.104.543-.142.18-.043.398.01.57-.052.223-.08.13-.337.29-.45.104-.075.287-.01.406-.05.2-.07.34-.264.376-.46.015-.083.01-.146.038-.222.04-.103.112-.16.09-.293-.01-.06-.05-.12-.064-.185-.022-.115.002-.224 0-.337-.002-.2.017-.38-.077-.55-.38-.688-1.238-.93-1.976-.79-.18.035-.287.127-.442.208-.17.088-.14.166-.318.223-.08.026-.216.123-.215.223 0 .115.004.05.01.17-.02.01-.02-.006-.03-.026M.495-48.695c.018.072.007.127-.026.19-.053.1-.113.063-.166.128-.05.062-.1.276-.08.362-.168.058-.01.227-.014.35-.002.05-.04.105-.045.16-.01.12.017.267.068.37.097.2.268.414.435.545.19.15.365.572.608.63.178.043.384-.104.543-.142.18-.043.397.01.57-.052.222-.08.128-.337.29-.45.103-.075.286-.01.405-.05.2-.07.34-.264.376-.46.017-.083.01-.146.04-.222.038-.103.11-.16.09-.293-.01-.06-.052-.12-.064-.185-.022-.115.002-.224 0-.337-.003-.2.017-.38-.078-.55-.38-.688-1.236-.93-1.975-.79-.18.035-.286.127-.442.208-.17.088-.137.166-.317.223-.08.026-.216.123-.215.223.002.115.005.05.012.17-.02.01-.022-.006-.03-.026"/></g><g><path class="st2" d="M69.44-41.042c.016.072.006.127-.027.19-.053.1-.112.063-.165.128-.05.063-.1.277-.08.363-.168.056-.01.225-.014.348-.003.05-.04.106-.045.16-.01.12.016.267.067.37.097.2.268.415.435.545.19.15.365.573.608.63.178.043.384-.103.543-.14.18-.044.398.008.572-.054.22-.08.127-.338.288-.45.104-.075.287-.01.406-.052.2-.07.338-.263.375-.46.015-.082.01-.144.038-.22.04-.103.112-.16.09-.294-.01-.06-.05-.12-.064-.186-.023-.114 0-.224 0-.337-.003-.2.016-.378-.078-.55-.38-.686-1.237-.928-1.975-.788-.18.034-.287.126-.442.207-.17.087-.14.165-.318.223-.08.026-.216.124-.215.223 0 .116.005.05.012.17-.02.01-.022-.006-.03-.026M61.778-41.042c.018.072.008.127-.026.19-.052.1-.112.063-.165.128-.05.063-.1.277-.08.363-.168.056-.008.225-.014.348-.002.05-.04.106-.045.16-.01.12.017.267.068.37.097.2.268.415.435.545.19.15.366.573.61.63.177.043.383-.103.543-.14.18-.044.397.008.57-.054.223-.08.128-.338.29-.45.103-.075.286-.01.405-.052.2-.07.34-.263.376-.46.016-.082.01-.144.04-.22.037-.103.11-.16.09-.294-.01-.06-.053-.12-.065-.186-.023-.114 0-.224 0-.337-.004-.2.016-.378-.08-.55-.38-.686-1.235-.928-1.974-.788-.18.034-.286.126-.44.207-.172.087-.14.165-.32.223-.08.026-.216.124-.215.223.003.116.006.05.013.17-.02.01-.02-.006-.03-.026M54.118-41.042c.018.072.007.127-.026.19-.052.1-.112.063-.165.128-.05.063-.1.277-.08.363-.168.056-.008.225-.014.348-.002.05-.04.106-.045.16-.01.12.017.267.068.37.097.2.268.415.435.545.19.15.366.573.61.63.177.043.383-.103.542-.14.18-.044.398.008.572-.054.22-.08.127-.338.288-.45.104-.075.287-.01.406-.052.2-.07.34-.263.376-.46.016-.082.01-.144.04-.22.037-.103.11-.16.09-.294-.01-.06-.053-.12-.066-.186-.02-.114.002-.224 0-.337-.002-.2.018-.378-.077-.55-.38-.686-1.235-.928-1.974-.788-.18.034-.286.126-.442.207-.17.087-.138.165-.318.223-.08.026-.216.124-.215.223.003.116.006.05.013.17-.02.01-.022-.006-.03-.026M46.458-41.042c.017.072.007.127-.026.19-.053.1-.113.063-.165.128-.05.063-.1.277-.08.363-.168.056-.01.225-.015.348-.002.05-.04.106-.045.16-.01.12.018.267.068.37.098.2.268.415.435.545.19.15.365.573.61.63.176.043.383-.103.542-.14.18-.044.397.008.57-.054.223-.08.13-.338.29-.45.104-.075.286-.01.405-.052.2-.07.34-.263.376-.46.016-.082.01-.144.04-.22.038-.103.11-.16.09-.294-.01-.06-.052-.12-.065-.186-.022-.114.002-.224 0-.337-.003-.2.017-.378-.078-.55-.38-.686-1.236-.928-1.974-.788-.18.034-.287.126-.442.207-.17.087-.14.165-.32.223-.08.026-.214.124-.214.223.002.116.005.05.012.17-.02.01-.02-.006-.03-.026M38.797-41.042c.018.072.008.127-.025.19-.053.1-.113.063-.166.128-.05.063-.1.277-.08.363-.168.056-.008.225-.014.348-.002.05-.04.106-.045.16-.01.12.017.267.068.37.097.2.268.415.435.545.19.15.365.573.61.63.176.043.382-.103.542-.14.18-.044.397.008.57-.054.223-.08.128-.338.29-.45.103-.075.286-.01.405-.052.2-.07.34-.263.376-.46.016-.082.01-.144.04-.22.037-.103.11-.16.09-.294-.01-.06-.053-.12-.065-.186-.022-.114.002-.224 0-.337-.003-.2.017-.378-.078-.55-.38-.686-1.236-.928-1.975-.788-.18.034-.286.126-.44.207-.172.087-.14.165-.32.223-.08.026-.216.124-.215.223.002.116.005.05.012.17-.02.01-.02-.006-.03-.026M31.137-41.042c.017.072.007.127-.026.19-.052.1-.11.063-.164.128-.05.063-.1.277-.08.363-.168.056-.01.225-.014.348-.003.05-.04.106-.045.16-.01.12.017.267.068.37.097.2.268.415.435.545.19.15.364.573.608.63.177.043.384-.103.543-.14.18-.044.398.008.572-.054.222-.08.128-.338.288-.45.105-.075.287-.01.407-.052.2-.07.338-.263.376-.46.015-.082.01-.144.038-.22.04-.103.112-.16.09-.294-.008-.06-.05-.12-.063-.186-.022-.114.002-.224 0-.337-.002-.2.017-.378-.078-.55-.38-.686-1.237-.928-1.975-.788-.18.034-.287.126-.442.207-.17.087-.14.165-.318.223-.082.026-.216.124-.215.223 0 .116.005.05.01.17-.02.01-.02-.006-.03-.026M23.477-41.042c.017.072.007.127-.026.19-.052.1-.112.063-.164.128-.05.063-.1.277-.08.363-.168.056-.01.225-.015.348 0 .05-.04.106-.043.16-.01.12.017.267.067.37.098.2.268.415.435.545.19.15.364.573.608.63.177.043.384-.103.543-.14.18-.044.398.008.572-.054.222-.08.128-.338.288-.45.105-.075.287-.01.406-.052.2-.07.34-.263.376-.46.016-.082.01-.144.04-.22.038-.103.11-.16.09-.294-.01-.06-.052-.12-.065-.186-.022-.114.002-.224 0-.337-.003-.2.017-.378-.078-.55-.38-.686-1.237-.928-1.975-.788-.18.034-.287.126-.442.207-.17.087-.14.165-.32.223-.08.026-.214.124-.213.223 0 .116.004.05.01.17-.02.01-.02-.006-.03-.026M15.816-41.042c.017.072.007.127-.026.19-.053.1-.112.063-.165.128-.05.063-.1.277-.08.363-.168.056-.008.225-.014.348-.002.05-.04.106-.044.16-.01.12.017.267.068.37.097.2.268.415.435.545.19.15.363.573.607.63.177.043.384-.103.543-.14.18-.044.398.008.57-.054.223-.08.13-.338.29-.45.104-.075.287-.01.406-.052.2-.07.34-.263.376-.46.015-.082.01-.144.038-.22.04-.103.112-.16.09-.294-.01-.06-.05-.12-.064-.186-.022-.114.002-.224 0-.337-.002-.2.017-.378-.077-.55-.38-.686-1.238-.928-1.976-.788-.18.034-.287.126-.442.207-.17.087-.14.165-.318.223-.08.026-.216.124-.215.223 0 .116.004.05.01.17-.02.01-.02-.006-.03-.026M8.156-41.042c.017.072.007.127-.026.19-.053.1-.112.063-.165.128-.05.063-.1.277-.08.363-.168.056-.01.225-.014.348-.002.05-.04.106-.044.16-.01.12.017.267.068.37.097.2.268.415.435.545.19.15.363.573.607.63.177.043.384-.103.543-.14.18-.044.398.008.57-.054.223-.08.13-.338.29-.45.104-.075.287-.01.406-.052.2-.07.34-.263.376-.46.015-.082.01-.144.038-.22.04-.103.112-.16.09-.294-.01-.06-.05-.12-.064-.186-.022-.114.002-.224 0-.337-.002-.2.017-.378-.077-.55-.38-.686-1.238-.928-1.976-.788-.18.034-.287.126-.442.207-.17.087-.14.165-.318.223-.08.026-.216.124-.215.223 0 .116.004.05.01.17-.02.01-.02-.006-.03-.026M.495-41.042c.018.072.007.127-.026.19-.053.1-.113.063-.166.128-.05.063-.1.277-.08.363-.168.056-.01.225-.014.348-.002.05-.04.106-.045.16-.01.12.017.267.068.37.097.2.268.415.435.545.19.15.365.573.61.63.176.043.382-.103.54-.14.182-.044.4.008.573-.054.222-.08.128-.338.29-.45.103-.075.286-.01.405-.052.2-.07.34-.263.376-.46.017-.082.01-.144.04-.22.038-.103.11-.16.09-.294-.01-.06-.052-.12-.064-.186-.022-.114.002-.224 0-.337-.003-.2.017-.378-.078-.55-.38-.686-1.236-.928-1.975-.788-.18.034-.286.126-.442.207-.17.087-.137.165-.317.223-.08.026-.216.124-.215.223.002.116.005.05.012.17-.02.01-.022-.006-.03-.026"/></g><g><path class="st2" d="M69.44-33.39c.016.073.006.127-.027.19-.053.1-.112.063-.165.13-.05.06-.1.275-.08.36-.168.06-.01.228-.014.35-.003.05-.04.106-.045.162-.01.12.016.265.067.37.097.198.268.413.435.544.19.148.365.572.608.63.178.043.384-.104.543-.142.18-.043.398.01.572-.053.22-.078.127-.336.288-.45.104-.073.287-.01.406-.05.2-.07.338-.262.375-.46.015-.082.01-.144.038-.22.04-.103.112-.16.09-.293-.01-.062-.05-.12-.064-.187-.023-.114 0-.223 0-.337-.003-.2.016-.38-.078-.55-.38-.687-1.237-.928-1.975-.79-.18.036-.287.127-.442.208-.17.09-.14.167-.318.225-.08.026-.216.124-.215.224 0 .114.005.05.012.168-.02.01-.022-.005-.03-.026M61.778-33.39c.018.073.008.127-.026.19-.052.1-.112.063-.165.13-.05.06-.1.275-.08.36-.168.06-.008.228-.014.35-.002.05-.04.106-.045.162-.01.12.017.265.068.37.097.198.268.413.435.544.19.148.366.572.61.63.177.043.383-.104.543-.142.18-.043.397.01.57-.053.223-.078.128-.336.29-.45.103-.073.286-.01.405-.05.2-.07.34-.262.376-.46.016-.082.01-.144.04-.22.037-.103.11-.16.09-.293-.01-.062-.053-.12-.065-.187-.023-.114 0-.223 0-.337-.004-.2.016-.38-.08-.55-.38-.687-1.235-.928-1.974-.79-.18.036-.286.127-.44.208-.172.09-.14.167-.32.225-.08.026-.216.124-.215.224.003.114.006.05.013.168-.02.01-.02-.005-.03-.026M54.118-33.39c.018.073.007.127-.026.19-.052.1-.112.063-.165.13-.05.06-.1.275-.08.36-.168.06-.008.228-.014.35-.002.05-.04.106-.045.162-.01.12.017.265.068.37.097.198.268.413.435.544.19.148.366.572.61.63.177.043.383-.104.542-.142.18-.043.398.01.572-.053.22-.078.127-.336.288-.45.104-.073.287-.01.406-.05.2-.07.34-.262.376-.46.016-.082.01-.144.04-.22.037-.103.11-.16.09-.293-.01-.062-.053-.12-.066-.187-.02-.114.002-.223 0-.337-.002-.2.018-.38-.077-.55-.38-.687-1.235-.928-1.974-.79-.18.036-.286.127-.442.208-.17.09-.138.167-.318.225-.08.026-.216.124-.215.224.003.114.006.05.013.168-.02.01-.022-.005-.03-.026M46.458-33.39c.017.073.007.127-.026.19-.053.1-.113.063-.165.13-.05.06-.1.275-.08.36-.168.06-.01.228-.015.35-.002.05-.04.106-.045.162-.01.12.018.265.068.37.098.198.268.413.435.544.19.148.365.572.61.63.176.043.383-.104.542-.142.18-.043.397.01.57-.053.223-.078.13-.336.29-.45.104-.073.286-.01.405-.05.2-.07.34-.262.376-.46.016-.082.01-.144.04-.22.038-.103.11-.16.09-.293-.01-.062-.052-.12-.065-.187-.022-.114.002-.223 0-.337-.003-.2.017-.38-.078-.55-.38-.687-1.236-.928-1.974-.79-.18.036-.287.127-.442.208-.17.09-.14.167-.32.225-.08.026-.214.124-.214.224.002.114.005.05.012.168-.02.01-.02-.005-.03-.026M38.797-33.39c.018.073.008.127-.025.19-.053.1-.113.063-.166.13-.05.06-.1.275-.08.36-.168.06-.008.228-.014.35-.002.05-.04.106-.045.162-.01.12.017.265.068.37.097.198.268.413.435.544.19.148.365.572.61.63.176.043.382-.104.542-.142.18-.043.397.01.57-.053.223-.078.128-.336.29-.45.103-.073.286-.01.405-.05.2-.07.34-.262.376-.46.016-.082.01-.144.04-.22.037-.103.11-.16.09-.293-.01-.062-.053-.12-.065-.187-.022-.114.002-.223 0-.337-.003-.2.017-.38-.078-.55-.38-.687-1.236-.928-1.975-.79-.18.036-.286.127-.44.208-.172.09-.14.167-.32.225-.08.026-.216.124-.215.224.002.114.005.05.012.168-.02.01-.02-.005-.03-.026M31.137-33.39c.017.073.007.127-.026.19-.052.1-.11.063-.164.13-.05.06-.1.275-.08.36-.168.06-.01.228-.014.35-.003.05-.04.106-.045.162-.01.12.017.265.068.37.097.198.268.413.435.544.19.148.364.572.608.63.177.043.384-.104.543-.142.18-.043.398.01.572-.053.222-.078.128-.336.288-.45.105-.073.287-.01.407-.05.2-.07.338-.262.376-.46.015-.082.01-.144.038-.22.04-.103.112-.16.09-.293-.008-.062-.05-.12-.063-.187-.022-.114.002-.223 0-.337-.002-.2.017-.38-.078-.55-.38-.687-1.237-.928-1.975-.79-.18.036-.287.127-.442.208-.17.09-.14.167-.318.225-.082.026-.216.124-.215.224 0 .114.005.05.01.168-.02.01-.02-.005-.03-.026M23.477-33.39c.017.073.007.127-.026.19-.052.1-.112.063-.164.13-.05.06-.1.275-.08.36-.168.06-.01.228-.015.35 0 .05-.04.106-.043.162-.01.12.017.265.067.37.098.198.268.413.435.544.19.148.364.572.608.63.177.043.384-.104.543-.142.18-.043.398.01.572-.053.222-.078.128-.336.288-.45.105-.073.287-.01.406-.05.2-.07.34-.262.376-.46.016-.082.01-.144.04-.22.038-.103.11-.16.09-.293-.01-.062-.052-.12-.065-.187-.022-.114.002-.223 0-.337-.003-.2.017-.38-.078-.55-.38-.687-1.237-.928-1.975-.79-.18.036-.287.127-.442.208-.17.09-.14.167-.32.225-.08.026-.214.124-.213.224 0 .114.004.05.01.168-.02.01-.02-.005-.03-.026M15.816-33.39c.017.073.007.127-.026.19-.053.1-.112.063-.165.13-.05.06-.1.275-.08.36-.168.06-.008.228-.014.35-.002.05-.04.106-.044.162-.01.12.017.265.068.37.097.198.268.413.435.544.19.148.363.572.607.63.177.043.384-.104.543-.142.18-.043.398.01.57-.053.223-.078.13-.336.29-.45.104-.073.287-.01.406-.05.2-.07.34-.262.376-.46.015-.082.01-.144.038-.22.04-.103.112-.16.09-.293-.01-.062-.05-.12-.064-.187-.022-.114.002-.223 0-.337-.002-.2.017-.38-.077-.55-.38-.687-1.238-.928-1.976-.79-.18.036-.287.127-.442.208-.17.09-.14.167-.318.225-.08.026-.216.124-.215.224 0 .114.004.05.01.168-.02.01-.02-.005-.03-.026M8.156-33.39c.017.073.007.127-.026.19-.053.1-.112.063-.165.13-.05.06-.1.275-.08.36-.168.06-.01.228-.014.35-.002.05-.04.106-.044.162-.01.12.017.265.068.37.097.198.268.413.435.544.19.148.363.572.607.63.177.043.384-.104.543-.142.18-.043.398.01.57-.053.223-.078.13-.336.29-.45.104-.073.287-.01.406-.05.2-.07.34-.262.376-.46.015-.082.01-.144.038-.22.04-.103.112-.16.09-.293-.01-.062-.05-.12-.064-.187-.022-.114.002-.223 0-.337-.002-.2.017-.38-.077-.55-.38-.687-1.238-.928-1.976-.79-.18.036-.287.127-.442.208-.17.09-.14.167-.318.225-.08.026-.216.124-.215.224 0 .114.004.05.01.168-.02.01-.02-.005-.03-.026M.495-33.39c.018.073.007.127-.026.19-.053.1-.113.063-.166.13-.05.06-.1.275-.08.36-.168.06-.01.228-.014.35-.002.05-.04.106-.045.162-.01.12.017.265.068.37.097.198.268.413.435.544.19.148.365.572.61.63.176.043.382-.104.54-.142.182-.043.4.01.573-.053.222-.078.128-.336.29-.45.103-.073.286-.01.405-.05.2-.07.34-.262.376-.46.017-.082.01-.144.04-.22.038-.103.11-.16.09-.293-.01-.062-.052-.12-.064-.187-.022-.114.002-.223 0-.337-.003-.2.017-.38-.078-.55-.38-.687-1.236-.928-1.975-.79-.18.036-.286.127-.442.208-.17.09-.137.167-.317.225-.08.026-.216.124-.215.224.002.114.005.05.012.168-.02.01-.022-.005-.03-.026"/></g><g><path class="st2" d="M69.44-25.736c.016.072.006.127-.027.19-.053.1-.112.063-.165.128-.05.063-.1.276-.08.362-.168.058-.01.227-.014.35-.003.05-.04.105-.045.16-.01.12.016.267.067.37.097.2.268.414.435.545.19.148.365.57.608.63.178.042.384-.104.543-.143.18-.042.398.01.572-.052.22-.08.127-.337.288-.45.104-.075.287-.01.406-.05.2-.07.338-.264.375-.46.015-.083.01-.146.038-.222.04-.102.112-.16.09-.293-.01-.06-.05-.12-.064-.186-.023-.115 0-.224 0-.337-.003-.2.016-.38-.078-.55-.38-.688-1.237-.93-1.975-.79-.18.035-.287.127-.442.208-.17.088-.14.166-.318.223-.08.027-.216.125-.215.224 0 .115.005.05.012.17-.02.01-.022-.006-.03-.026M61.778-25.736c.018.072.008.127-.026.19-.052.1-.112.063-.165.128-.05.063-.1.276-.08.362-.168.058-.008.227-.014.35-.002.05-.04.105-.045.16-.01.12.017.267.068.37.097.2.268.414.435.545.19.148.366.57.61.63.177.042.383-.104.543-.143.18-.042.397.01.57-.052.223-.08.128-.337.29-.45.103-.075.286-.01.405-.05.2-.07.34-.264.376-.46.016-.083.01-.146.04-.222.037-.102.11-.16.09-.293-.01-.06-.053-.12-.065-.186-.023-.115 0-.224 0-.337-.004-.2.016-.38-.08-.55-.38-.688-1.235-.93-1.974-.79-.18.035-.286.127-.44.208-.172.088-.14.166-.32.223-.08.027-.216.125-.215.224.003.115.006.05.013.17-.02.01-.02-.006-.03-.026M54.118-25.736c.018.072.007.127-.026.19-.052.1-.112.063-.165.128-.05.063-.1.276-.08.362-.168.058-.008.227-.014.35-.002.05-.04.105-.045.16-.01.12.017.267.068.37.097.2.268.414.435.545.19.148.366.57.61.63.177.042.383-.104.542-.143.18-.042.398.01.572-.052.22-.08.127-.337.288-.45.104-.075.287-.01.406-.05.2-.07.34-.264.376-.46.016-.083.01-.146.04-.222.037-.102.11-.16.09-.293-.01-.06-.053-.12-.066-.186-.02-.115.002-.224 0-.337-.002-.2.018-.38-.077-.55-.38-.688-1.235-.93-1.974-.79-.18.035-.286.127-.442.208-.17.088-.138.166-.318.223-.08.027-.216.125-.215.224.003.115.006.05.013.17-.02.01-.022-.006-.03-.026M46.458-25.736c.017.072.007.127-.026.19-.053.1-.113.063-.165.128-.05.063-.1.276-.08.362-.168.058-.01.227-.015.35-.002.05-.04.105-.045.16-.01.12.018.267.068.37.098.2.268.414.435.545.19.148.365.57.61.63.176.042.383-.104.542-.143.18-.042.397.01.57-.052.223-.08.13-.337.29-.45.104-.075.286-.01.405-.05.2-.07.34-.264.376-.46.016-.083.01-.146.04-.222.038-.102.11-.16.09-.293-.01-.06-.052-.12-.065-.186-.022-.115.002-.224 0-.337-.003-.2.017-.38-.078-.55-.38-.688-1.236-.93-1.974-.79-.18.035-.287.127-.442.208-.17.088-.14.166-.32.223-.08.027-.214.125-.214.224.002.115.005.05.012.17-.02.01-.02-.006-.03-.026M38.797-25.736c.018.072.008.127-.025.19-.053.1-.113.063-.166.128-.05.063-.1.276-.08.362-.168.058-.008.227-.014.35-.002.05-.04.105-.045.16-.01.12.017.267.068.37.097.2.268.414.435.545.19.148.365.57.61.63.176.042.382-.104.542-.143.18-.042.397.01.57-.052.223-.08.128-.337.29-.45.103-.075.286-.01.405-.05.2-.07.34-.264.376-.46.016-.083.01-.146.04-.222.037-.102.11-.16.09-.293-.01-.06-.053-.12-.065-.186-.022-.115.002-.224 0-.337-.003-.2.017-.38-.078-.55-.38-.688-1.236-.93-1.975-.79-.18.035-.286.127-.44.208-.172.088-.14.166-.32.223-.08.027-.216.125-.215.224.002.115.005.05.012.17-.02.01-.02-.006-.03-.026M31.137-25.736c.017.072.007.127-.026.19-.052.1-.11.063-.164.128-.05.063-.1.276-.08.362-.168.058-.01.227-.014.35-.003.05-.04.105-.045.16-.01.12.017.267.068.37.097.2.268.414.435.545.19.148.364.57.608.63.177.042.384-.104.543-.143.18-.042.398.01.572-.052.222-.08.128-.337.288-.45.105-.075.287-.01.407-.05.2-.07.338-.264.376-.46.015-.083.01-.146.038-.222.04-.102.112-.16.09-.293-.008-.06-.05-.12-.063-.186-.022-.115.002-.224 0-.337-.002-.2.017-.38-.078-.55-.38-.688-1.237-.93-1.975-.79-.18.035-.287.127-.442.208-.17.088-.14.166-.318.223-.082.027-.216.125-.215.224 0 .115.005.05.01.17-.02.01-.02-.006-.03-.026M23.477-25.736c.017.072.007.127-.026.19-.052.1-.112.063-.164.128-.05.063-.1.276-.08.362-.168.058-.01.227-.015.35 0 .05-.04.105-.043.16-.01.12.017.267.067.37.098.2.268.414.435.545.19.148.364.57.608.63.177.042.384-.104.543-.143.18-.042.398.01.572-.052.222-.08.128-.337.288-.45.105-.075.287-.01.406-.05.2-.07.34-.264.376-.46.016-.083.01-.146.04-.222.038-.102.11-.16.09-.293-.01-.06-.052-.12-.065-.186-.022-.115.002-.224 0-.337-.003-.2.017-.38-.078-.55-.38-.688-1.237-.93-1.975-.79-.18.035-.287.127-.442.208-.17.088-.14.166-.32.223-.08.027-.214.125-.213.224 0 .115.004.05.01.17-.02.01-.02-.006-.03-.026M15.816-25.736c.017.072.007.127-.026.19-.053.1-.112.063-.165.128-.05.063-.1.276-.08.362-.168.058-.008.227-.014.35-.002.05-.04.105-.044.16-.01.12.017.267.068.37.097.2.268.414.435.545.19.148.363.57.607.63.177.042.384-.104.543-.143.18-.042.398.01.57-.052.223-.08.13-.337.29-.45.104-.075.287-.01.406-.05.2-.07.34-.264.376-.46.015-.083.01-.146.038-.222.04-.102.112-.16.09-.293-.01-.06-.05-.12-.064-.186-.022-.115.002-.224 0-.337-.002-.2.017-.38-.077-.55-.38-.688-1.238-.93-1.976-.79-.18.035-.287.127-.442.208-.17.088-.14.166-.318.223-.08.027-.216.125-.215.224 0 .115.004.05.01.17-.02.01-.02-.006-.03-.026M8.156-25.736c.017.072.007.127-.026.19-.053.1-.112.063-.165.128-.05.063-.1.276-.08.362-.168.058-.01.227-.014.35-.002.05-.04.105-.044.16-.01.12.017.267.068.37.097.2.268.414.435.545.188.148.363.57.607.63.177.042.384-.104.543-.143.18-.043.397.01.57-.052.223-.08.13-.337.29-.45.104-.075.286-.01.406-.05.2-.07.338-.264.376-.46.015-.083.01-.146.038-.222.04-.103.11-.16.09-.293-.01-.06-.05-.12-.064-.186-.022-.115.002-.224 0-.337-.002-.2.017-.38-.078-.55-.38-.688-1.236-.93-1.974-.79-.18.035-.287.127-.442.208-.17.088-.14.166-.318.223-.082.027-.216.124-.215.224 0 .115.004.05.01.17-.02.01-.02-.006-.03-.026M.495-25.736c.018.072.007.127-.026.19-.053.1-.113.063-.166.128-.05.063-.1.276-.08.362-.168.058-.01.227-.014.35-.002.05-.04.105-.045.16-.01.12.017.267.068.37.097.2.268.414.435.545.19.148.365.57.608.63.178.042.384-.104.543-.143.18-.043.397.01.57-.052.222-.08.128-.337.29-.45.103-.075.286-.01.405-.05.2-.07.34-.264.376-.46.017-.083.01-.146.04-.222.038-.103.11-.16.09-.293-.01-.06-.052-.12-.065-.186-.022-.115.002-.224 0-.337-.002-.2.018-.38-.077-.55-.38-.688-1.236-.93-1.975-.79-.18.035-.286.127-.442.208-.17.088-.137.166-.317.223-.08.027-.216.124-.215.224.002.115.005.05.012.17-.02.01-.022-.006-.03-.026"/></g><g><path class="st2" d="M69.44-18.084c.016.072.006.127-.027.19-.053.1-.112.063-.165.128-.05.063-.1.277-.08.363-.168.057-.01.226-.014.35-.003.05-.04.105-.045.16-.01.12.016.266.067.37.097.2.268.414.435.545.19.148.365.572.608.63.178.042.384-.104.543-.142.18-.043.398.01.572-.053.22-.08.127-.337.288-.45.104-.074.287-.01.406-.05.2-.07.338-.264.375-.46.015-.083.01-.145.038-.222.04-.102.112-.16.09-.293-.01-.06-.05-.12-.064-.186-.023-.114 0-.224 0-.337-.003-.2.016-.38-.078-.55-.38-.688-1.237-.93-1.975-.79-.18.034-.287.126-.442.207-.17.088-.14.166-.318.224-.08.027-.216.125-.215.224 0 .116.005.05.012.17-.02.01-.022-.005-.03-.026M61.778-18.084c.018.072.008.127-.026.19-.052.1-.112.063-.165.128-.05.063-.1.277-.08.363-.168.057-.008.226-.014.35-.002.05-.04.105-.045.16-.01.12.017.266.068.37.097.2.268.414.435.545.19.148.366.572.61.63.177.042.383-.104.543-.142.18-.043.397.01.57-.053.223-.08.128-.337.29-.45.103-.074.286-.01.405-.05.2-.07.34-.264.376-.46.016-.083.01-.145.04-.222.037-.102.11-.16.09-.293-.01-.06-.053-.12-.065-.186-.023-.114 0-.224 0-.337-.004-.2.016-.38-.08-.55-.38-.688-1.235-.93-1.974-.79-.18.034-.286.126-.44.207-.172.088-.14.166-.32.224-.08.027-.216.125-.215.224.003.116.006.05.013.17-.02.01-.02-.005-.03-.026M54.118-18.084c.018.072.007.127-.026.19-.052.1-.112.063-.165.128-.05.063-.1.277-.08.363-.168.057-.008.226-.014.35-.002.05-.04.105-.045.16-.01.12.017.266.068.37.097.2.268.414.435.545.19.148.366.572.61.63.177.042.383-.104.542-.142.18-.043.398.01.572-.053.22-.08.127-.337.288-.45.104-.074.287-.01.406-.05.2-.07.34-.264.376-.46.016-.083.01-.145.04-.222.037-.102.11-.16.09-.293-.01-.06-.053-.12-.066-.186-.02-.114.002-.224 0-.337-.002-.2.018-.38-.077-.55-.38-.688-1.235-.93-1.974-.79-.18.034-.286.126-.442.207-.17.088-.138.166-.318.224-.08.027-.216.125-.215.224.003.116.006.05.013.17-.02.01-.022-.005-.03-.026M46.458-18.084c.017.072.007.127-.026.19-.053.1-.113.063-.165.128-.05.063-.1.277-.08.363-.168.057-.01.226-.015.35-.002.05-.04.105-.045.16-.01.12.018.266.068.37.098.2.268.414.435.545.19.148.365.572.61.63.176.042.383-.104.542-.142.18-.043.397.01.57-.053.223-.08.13-.337.29-.45.104-.074.286-.01.405-.05.2-.07.34-.264.376-.46.016-.083.01-.145.04-.222.038-.102.11-.16.09-.293-.01-.06-.052-.12-.065-.186-.022-.114.002-.224 0-.337-.003-.2.017-.38-.078-.55-.38-.688-1.236-.93-1.974-.79-.18.034-.287.126-.442.207-.17.088-.14.166-.32.224-.08.027-.214.125-.214.224.002.116.005.05.012.17-.02.01-.02-.005-.03-.026M38.797-18.084c.018.072.008.127-.025.19-.053.1-.113.063-.166.128-.05.063-.1.277-.08.363-.168.057-.008.226-.014.35-.002.05-.04.105-.045.16-.01.12.017.266.068.37.097.2.268.414.435.545.19.148.365.572.61.63.176.042.382-.104.542-.142.18-.043.397.01.57-.053.223-.08.128-.337.29-.45.103-.074.286-.01.405-.05.2-.07.34-.264.376-.46.016-.083.01-.145.04-.222.037-.102.11-.16.09-.293-.01-.06-.053-.12-.065-.186-.022-.114.002-.224 0-.337-.003-.2.017-.38-.078-.55-.38-.688-1.236-.93-1.975-.79-.18.034-.286.126-.44.207-.172.088-.14.166-.32.224-.08.027-.216.125-.215.224.002.116.005.05.012.17-.02.01-.02-.005-.03-.026M31.137-18.084c.017.072.007.127-.026.19-.052.1-.11.063-.164.128-.05.063-.1.277-.08.363-.168.057-.01.226-.014.35-.003.05-.04.105-.045.16-.01.12.017.266.068.37.097.2.268.414.435.545.19.148.364.572.608.63.177.042.384-.104.543-.142.18-.043.398.01.572-.053.222-.08.128-.337.288-.45.105-.074.287-.01.407-.05.2-.07.338-.264.376-.46.015-.083.01-.145.038-.222.04-.102.112-.16.09-.293-.008-.06-.05-.12-.063-.186-.022-.114.002-.224 0-.337-.002-.2.017-.38-.078-.55-.38-.688-1.237-.93-1.975-.79-.18.034-.287.126-.442.207-.17.088-.14.166-.318.224-.082.027-.216.125-.215.224 0 .116.005.05.01.17-.02.01-.02-.005-.03-.026M23.477-18.084c.017.072.007.127-.026.19-.052.1-.112.063-.164.128-.05.063-.1.277-.08.363-.168.057-.01.226-.015.35 0 .05-.04.105-.043.16-.01.12.017.266.067.37.098.2.268.414.435.545.19.148.364.572.608.63.177.042.384-.104.543-.142.18-.043.398.01.572-.053.222-.08.128-.337.288-.45.105-.074.287-.01.406-.05.2-.07.34-.264.376-.46.016-.083.01-.145.04-.222.038-.102.11-.16.09-.293-.01-.06-.052-.12-.065-.186-.022-.114.002-.224 0-.337-.003-.2.017-.38-.078-.55-.38-.688-1.237-.93-1.975-.79-.18.034-.287.126-.442.207-.17.088-.14.166-.32.224-.08.027-.214.125-.213.224 0 .116.004.05.01.17-.02.01-.02-.005-.03-.026M15.816-18.084c.017.072.007.127-.026.19-.053.1-.112.063-.165.128-.05.063-.1.277-.08.363-.168.057-.008.226-.014.35-.002.05-.04.105-.044.16-.01.12.017.266.068.37.097.2.268.414.435.545.19.148.363.572.607.63.177.042.384-.104.543-.142.18-.043.398.01.57-.053.223-.08.13-.337.29-.45.104-.074.287-.01.406-.05.2-.07.34-.264.376-.46.015-.083.01-.145.038-.222.04-.102.112-.16.09-.293-.01-.06-.05-.12-.064-.186-.022-.114.002-.224 0-.337-.002-.2.017-.38-.077-.55-.38-.688-1.238-.93-1.976-.79-.18.034-.287.126-.442.207-.17.088-.14.166-.318.224-.08.027-.216.125-.215.224 0 .116.004.05.01.17-.02.01-.02-.005-.03-.026M8.156-18.084c.017.072.007.127-.026.19-.053.1-.112.063-.165.128-.05.063-.1.277-.08.363-.168.057-.01.226-.014.35-.002.05-.04.105-.044.16-.01.12.017.266.068.37.097.2.268.414.435.545.19.148.363.572.607.63.177.042.384-.104.543-.142.18-.043.398.01.57-.053.223-.08.13-.337.29-.45.104-.074.287-.01.406-.05.2-.07.34-.264.376-.46.015-.083.01-.145.038-.222.04-.102.112-.16.09-.293-.01-.06-.05-.12-.064-.186-.022-.114.002-.224 0-.337-.002-.2.017-.38-.077-.55-.38-.688-1.238-.93-1.976-.79-.18.034-.287.126-.442.207-.17.088-.14.166-.318.224-.08.027-.216.125-.215.224 0 .116.004.05.01.17-.02.01-.02-.005-.03-.026M.495-18.084c.018.072.007.127-.026.19-.053.1-.113.063-.166.128-.05.063-.1.277-.08.363-.168.057-.01.226-.014.35-.002.05-.04.105-.045.16-.01.12.017.266.068.37.097.2.268.414.435.545.19.148.365.572.61.63.176.042.382-.104.54-.142.182-.043.4.01.573-.053.222-.08.128-.337.29-.45.103-.074.286-.01.405-.05.2-.07.34-.264.376-.46.017-.083.01-.145.04-.222.038-.102.11-.16.09-.293-.01-.06-.052-.12-.064-.186-.022-.114.002-.224 0-.337-.003-.2.017-.38-.078-.55-.38-.688-1.236-.93-1.975-.79-.18.034-.286.126-.442.207-.17.088-.137.166-.317.224-.08.027-.216.125-.215.224.002.116.005.05.012.17-.02.01-.022-.005-.03-.026"/></g><g><path class="st2" d="M69.44-10.43c.016.072.006.126-.027.19-.053.1-.112.062-.165.128-.05.062-.1.276-.08.362-.168.058-.01.227-.014.35-.003.05-.04.105-.045.16-.01.12.016.266.067.37.097.2.268.414.435.545.19.148.365.572.608.63.178.043.384-.104.543-.142.18-.043.398.01.572-.053.22-.08.127-.337.288-.45.104-.074.287-.01.406-.05.2-.07.338-.263.375-.46.015-.083.01-.145.038-.22.04-.104.112-.162.09-.294-.01-.062-.05-.12-.064-.187-.023-.115 0-.224 0-.338-.003-.2.016-.38-.078-.55-.38-.687-1.237-.928-1.975-.79-.18.036-.287.127-.442.208-.17.088-.14.166-.318.224-.08.026-.216.124-.215.224 0 .115.005.05.012.17-.02.01-.022-.006-.03-.027M61.778-10.43c.018.072.008.126-.026.19-.052.1-.112.062-.165.128-.05.062-.1.276-.08.362-.168.058-.008.227-.014.35-.002.05-.04.105-.045.16-.01.12.017.266.068.37.097.2.268.414.435.545.19.148.366.572.61.63.177.043.383-.104.543-.142.18-.043.397.01.57-.053.223-.08.128-.337.29-.45.103-.074.286-.01.405-.05.2-.07.34-.263.376-.46.016-.083.01-.145.04-.22.037-.104.11-.162.09-.294-.01-.062-.053-.12-.065-.187-.023-.115 0-.224 0-.338-.004-.2.016-.38-.08-.55-.38-.687-1.235-.928-1.974-.79-.18.036-.286.127-.44.208-.172.088-.14.166-.32.224-.08.026-.216.124-.215.224.003.115.006.05.013.17-.02.01-.02-.006-.03-.027M54.118-10.43c.018.072.007.126-.026.19-.052.1-.112.062-.165.128-.05.062-.1.276-.08.362-.168.058-.008.227-.014.35-.002.05-.04.105-.045.16-.01.12.017.266.068.37.097.2.268.414.435.545.19.148.366.572.61.63.177.043.383-.104.542-.142.18-.043.398.01.572-.053.22-.08.127-.337.288-.45.104-.074.287-.01.406-.05.2-.07.34-.263.376-.46.016-.083.01-.145.04-.22.037-.104.11-.162.09-.294-.01-.062-.053-.12-.066-.187-.02-.115.002-.224 0-.338-.002-.2.018-.38-.077-.55-.38-.687-1.235-.928-1.974-.79-.18.036-.286.127-.442.208-.17.088-.138.166-.318.224-.08.026-.216.124-.215.224.003.115.006.05.013.17-.02.01-.022-.006-.03-.027M46.458-10.43c.017.072.007.126-.026.19-.053.1-.113.062-.165.128-.05.062-.1.276-.08.362-.168.058-.01.227-.015.35-.002.05-.04.105-.045.16-.01.12.018.266.068.37.098.2.268.414.435.545.19.148.365.572.61.63.176.043.383-.104.542-.142.18-.043.397.01.57-.053.223-.08.13-.337.29-.45.104-.074.286-.01.405-.05.2-.07.34-.263.376-.46.016-.083.01-.145.04-.22.038-.104.11-.162.09-.294-.01-.062-.052-.12-.065-.187-.022-.115.002-.224 0-.338-.003-.2.017-.38-.078-.55-.38-.687-1.236-.928-1.974-.79-.18.036-.287.127-.442.208-.17.088-.14.166-.32.224-.08.026-.214.124-.214.224.002.115.005.05.012.17-.02.01-.02-.006-.03-.027M38.797-10.43c.018.072.008.126-.025.19-.053.1-.113.062-.166.128-.05.062-.1.276-.08.362-.168.058-.008.227-.014.35-.002.05-.04.105-.045.16-.01.12.017.266.068.37.097.2.268.414.435.545.19.148.365.572.61.63.176.043.382-.104.542-.142.18-.043.397.01.57-.053.223-.08.128-.337.29-.45.103-.074.286-.01.405-.05.2-.07.34-.263.376-.46.016-.083.01-.145.04-.22.037-.104.11-.162.09-.294-.01-.062-.053-.12-.065-.187-.022-.115.002-.224 0-.338-.003-.2.017-.38-.078-.55-.38-.687-1.236-.928-1.975-.79-.18.036-.286.127-.44.208-.172.088-.14.166-.32.224-.08.026-.216.124-.215.224.002.115.005.05.012.17-.02.01-.02-.006-.03-.027M31.137-10.43c.017.072.007.126-.026.19-.052.1-.11.062-.164.128-.05.062-.1.276-.08.362-.168.058-.01.227-.014.35-.003.05-.04.105-.045.16-.01.12.017.266.068.37.097.2.268.414.435.545.19.148.364.572.608.63.177.043.384-.104.543-.142.18-.043.398.01.572-.053.222-.08.128-.337.288-.45.105-.074.287-.01.407-.05.2-.07.338-.263.376-.46.015-.083.01-.145.038-.22.04-.104.112-.162.09-.294-.008-.062-.05-.12-.063-.187-.022-.115.002-.224 0-.338-.002-.2.017-.38-.078-.55-.38-.687-1.237-.928-1.975-.79-.18.036-.287.127-.442.208-.17.088-.14.166-.318.224-.082.026-.216.124-.215.224 0 .115.005.05.01.17-.02.01-.02-.006-.03-.027M23.477-10.43c.017.072.007.126-.026.19-.052.1-.112.062-.164.128-.05.062-.1.276-.08.362-.168.058-.01.227-.015.35 0 .05-.04.105-.043.16-.01.12.017.266.067.37.098.2.268.414.435.545.19.148.364.572.608.63.177.043.384-.104.543-.142.18-.043.398.01.572-.053.222-.08.128-.337.288-.45.105-.074.287-.01.406-.05.2-.07.34-.263.376-.46.016-.083.01-.145.04-.22.038-.104.11-.162.09-.294-.01-.062-.052-.12-.065-.187-.022-.115.002-.224 0-.338-.003-.2.017-.38-.078-.55-.38-.687-1.237-.928-1.975-.79-.18.036-.287.127-.442.208-.17.088-.14.166-.32.224-.08.026-.214.124-.213.224 0 .115.004.05.01.17-.02.01-.02-.006-.03-.027M15.816-10.43c.017.072.007.126-.026.19-.053.1-.112.062-.165.128-.05.062-.1.276-.08.362-.168.058-.008.227-.014.35-.002.05-.04.105-.044.16-.01.12.017.266.068.37.097.2.268.414.435.545.19.148.363.572.607.63.177.043.384-.104.543-.142.18-.043.398.01.57-.053.223-.08.13-.337.29-.45.104-.074.287-.01.406-.05.2-.07.34-.263.376-.46.015-.083.01-.145.038-.22.04-.104.112-.162.09-.294-.01-.062-.05-.12-.064-.187-.022-.115.002-.224 0-.338-.002-.2.017-.38-.077-.55-.38-.687-1.238-.928-1.976-.79-.18.036-.287.127-.442.208-.17.088-.14.166-.318.224-.08.026-.216.124-.215.224 0 .115.004.05.01.17-.02.01-.02-.006-.03-.027M8.156-10.43c.017.072.007.126-.026.19-.053.1-.112.062-.165.128-.05.062-.1.276-.08.362-.168.058-.008.227-.014.35-.002.05-.04.105-.044.16-.01.12.017.266.068.37.097.2.268.414.435.545.188.148.363.572.607.63.177.043.384-.104.543-.142.18-.043.397.01.57-.053.223-.08.13-.337.29-.45.104-.074.286-.01.406-.05.2-.07.338-.263.376-.46.015-.083.01-.145.038-.22.04-.104.11-.162.09-.294-.01-.062-.05-.12-.064-.187-.022-.115.002-.224 0-.338-.002-.2.017-.38-.078-.55-.38-.687-1.236-.928-1.974-.79-.18.036-.287.127-.442.208-.17.088-.14.166-.318.224-.082.026-.216.124-.215.224 0 .115.004.05.01.17-.02.01-.02-.006-.03-.027M.495-10.43c.018.072.007.126-.026.19-.053.1-.113.062-.166.128-.05.062-.1.276-.08.362-.168.058-.01.227-.014.35-.003.05-.04.105-.045.16-.01.12.017.266.068.37.097.2.268.414.435.545.19.148.365.572.608.63.178.043.384-.104.543-.142.18-.043.397.01.57-.053.222-.08.128-.337.29-.45.103-.074.286-.01.405-.05.2-.07.34-.263.376-.46.017-.083.01-.145.04-.22.038-.104.11-.162.09-.294-.01-.062-.052-.12-.065-.187-.022-.115.002-.224 0-.338-.002-.2.018-.38-.077-.55-.38-.687-1.236-.928-1.975-.79-.18.036-.286.127-.442.21-.17.086-.137.165-.317.222-.08.026-.216.124-.215.224.002.115.005.05.012.17-.02.01-.022-.006-.03-.027"/></g></g><g><path class="st2" d="M69.44-2.778c.016.072.007.127-.027.19-.052.1-.113.063-.165.128-.05.063-.1.276-.08.362-.168.058-.01.227-.014.35-.003.05-.04.105-.045.16-.01.12.016.267.067.37.097.2.268.414.435.545.19.148.365.572.608.63.177.043.384-.103.543-.142.18-.043.398.01.57-.052.223-.08.13-.337.29-.45.104-.075.287-.01.406-.05.198-.072.338-.264.375-.46.015-.083.01-.146.038-.222.038-.102.112-.16.09-.292-.01-.061-.05-.12-.064-.186-.022-.115 0-.224 0-.337-.003-.2.016-.38-.078-.55-.38-.688-1.237-.93-1.975-.79-.18.035-.287.127-.442.208-.17.088-.14.166-.318.223-.08.027-.216.124-.215.224.002.115.005.05.012.17-.02.01-.022-.006-.03-.027M61.778-2.778c.018.072.008.127-.026.19-.052.1-.112.063-.165.128-.05.062-.1.276-.08.362-.168.058-.008.227-.014.35-.002.05-.04.105-.045.16-.01.12.017.267.068.37.097.2.268.414.435.545.19.148.366.572.61.63.177.043.383-.103.542-.142.18-.043.398.01.572-.052.222-.08.127-.337.288-.45.104-.075.287-.01.406-.05.2-.07.34-.264.376-.46.016-.083.01-.146.04-.222.037-.102.11-.16.09-.292-.01-.061-.053-.12-.065-.186-.023-.115 0-.224 0-.337-.004-.2.016-.38-.08-.55-.38-.688-1.235-.93-1.974-.79-.18.035-.286.127-.442.208-.17.088-.138.166-.318.223-.08.027-.216.124-.215.224.003.115.006.05.013.17-.02.01-.02-.006-.03-.027M54.118-2.778c.018.072.007.127-.026.19-.052.1-.112.063-.165.128-.05.063-.1.276-.08.362-.168.058-.01.227-.014.35-.002.05-.04.105-.045.16-.01.12.017.267.068.37.097.2.268.414.435.545.19.148.366.572.61.63.177.043.383-.104.542-.142.18-.043.398.01.572-.052.22-.08.127-.337.288-.45.104-.075.287-.01.406-.05.2-.07.34-.264.376-.46.016-.083.01-.146.04-.222.037-.102.11-.16.09-.292-.01-.061-.053-.12-.066-.186-.022-.115.002-.224 0-.337-.002-.2.018-.38-.077-.55-.38-.688-1.235-.93-1.974-.79-.18.035-.286.127-.442.208-.17.088-.138.166-.318.223-.08.027-.216.124-.215.224.003.115.006.05.013.17-.02.01-.022-.006-.03-.027M46.458-2.778c.017.072.007.127-.026.19-.053.1-.113.063-.165.128-.05.062-.1.276-.08.362-.168.058-.01.227-.015.35-.002.05-.04.105-.045.16-.01.12.017.267.068.37.098.2.268.414.435.545.19.148.365.572.61.63.176.043.383-.103.542-.142.18-.043.397.01.57-.052.223-.08.13-.337.29-.45.104-.075.286-.01.405-.05.2-.07.34-.264.376-.46.016-.083.01-.146.04-.222.038-.102.11-.16.09-.292-.01-.061-.052-.12-.065-.186-.022-.115.002-.224 0-.337-.003-.2.017-.38-.078-.55-.38-.688-1.236-.93-1.974-.79-.18.035-.287.127-.442.208-.17.088-.14.166-.32.223-.08.027-.214.124-.214.224.002.115.005.05.012.17-.02.01-.02-.006-.03-.027M38.797-2.778c.018.072.008.127-.025.19-.053.1-.113.063-.166.128-.05.062-.1.276-.08.362-.168.058-.008.227-.014.35-.002.05-.04.105-.045.16-.01.12.017.267.068.37.097.2.268.414.435.545.19.148.365.572.61.63.176.043.382-.104.542-.142.18-.043.397.01.57-.052.223-.08.128-.337.29-.45.103-.075.286-.01.405-.05.2-.07.34-.264.376-.46.016-.083.01-.146.04-.222.037-.102.11-.16.09-.292-.01-.061-.053-.12-.065-.186-.022-.115.002-.224 0-.337-.003-.2.017-.38-.078-.55-.38-.688-1.236-.93-1.975-.79-.18.035-.286.127-.44.208-.172.088-.14.166-.32.223-.08.027-.216.124-.215.224.002.115.005.05.012.17-.02.01-.02-.006-.03-.027M31.137-2.778c.017.072.007.127-.026.19-.052.1-.11.063-.164.128-.05.062-.1.276-.08.362-.168.058-.01.227-.014.35-.003.05-.04.105-.045.16-.01.12.017.267.068.37.097.2.268.414.435.545.19.148.364.572.608.63.177.043.384-.103.543-.142.18-.043.398.01.572-.052.222-.08.128-.337.288-.45.105-.075.287-.01.407-.05.2-.07.338-.264.376-.46.015-.083.01-.146.038-.222.04-.102.112-.16.09-.292-.008-.061-.05-.12-.063-.186-.022-.115.002-.224 0-.337-.002-.2.017-.38-.078-.55-.38-.688-1.237-.93-1.975-.79-.18.035-.287.127-.442.208-.17.088-.14.166-.318.223-.082.027-.216.124-.215.224 0 .115.005.05.01.17-.02.01-.02-.006-.03-.027M23.477-2.778c.017.072.007.127-.026.19-.052.1-.112.063-.164.128-.05.062-.1.276-.08.362-.168.058-.01.227-.015.35 0 .05-.04.105-.043.16-.01.12.017.267.067.37.098.2.268.414.435.545.19.148.364.572.608.63.177.043.384-.104.543-.142.18-.043.398.01.572-.052.222-.08.128-.337.288-.45.105-.075.287-.01.406-.05.2-.07.34-.264.376-.46.016-.083.01-.146.04-.222.038-.102.11-.16.09-.292-.01-.061-.052-.12-.065-.186-.022-.115.002-.224 0-.337-.003-.2.017-.38-.078-.55-.38-.688-1.237-.93-1.975-.79-.18.035-.287.127-.442.208-.17.088-.14.166-.32.223-.08.027-.214.124-.213.224 0 .115.004.05.01.17-.02.01-.02-.006-.03-.027M15.816-2.778c.017.072.007.127-.026.19-.053.1-.112.063-.165.128-.05.062-.1.276-.08.362-.168.058-.01.227-.014.35-.002.05-.04.105-.044.16-.01.12.017.267.068.37.097.2.268.414.435.545.19.148.363.572.607.63.177.043.384-.103.543-.142.18-.043.398.01.57-.052.223-.08.13-.337.29-.45.104-.075.287-.01.406-.05.2-.07.34-.264.376-.46.015-.083.01-.146.038-.222.04-.102.112-.16.09-.292-.01-.061-.05-.12-.064-.186-.022-.115.002-.224 0-.337-.002-.2.017-.38-.077-.55-.38-.688-1.238-.93-1.976-.79-.18.035-.287.127-.442.208-.17.088-.14.166-.318.223-.08.027-.216.124-.215.224 0 .115.004.05.01.17-.02.01-.02-.006-.03-.027M8.156-2.778c.017.072.007.127-.026.19-.053.1-.112.063-.165.128-.05.063-.1.276-.08.362-.168.058-.01.227-.014.35-.002.05-.04.105-.044.16-.01.12.017.267.068.37.097.2.268.414.435.545.188.15.363.572.607.63.177.043.384-.103.543-.142.18-.043.398.01.57-.052.223-.08.13-.337.29-.45.104-.075.287-.01.406-.05.2-.07.34-.264.376-.46.015-.083.01-.146.038-.222.04-.102.112-.16.09-.292-.01-.061-.05-.12-.064-.186-.022-.115.002-.224 0-.337-.002-.2.017-.38-.078-.55-.38-.688-1.236-.93-1.974-.79-.18.035-.287.127-.442.208-.17.088-.14.166-.318.223-.082.027-.216.124-.215.224 0 .115.004.05.01.17-.02.01-.02-.006-.03-.026M.495-2.778c.018.072.008.127-.026.19-.053.1-.114.063-.166.128-.05.063-.1.276-.08.362-.168.058-.01.227-.014.35-.003.05-.04.105-.045.16-.01.12.017.267.068.37.097.2.268.414.435.545.19.15.365.572.608.63.178.043.384-.103.543-.142.18-.043.397.01.57-.052.222-.08.128-.337.29-.45.103-.075.286-.01.405-.05.2-.072.34-.264.376-.46.017-.083.01-.146.04-.222.038-.102.11-.16.09-.292-.01-.06-.05-.12-.065-.186-.02-.115.002-.224 0-.337-.002-.2.018-.38-.077-.55-.38-.688-1.237-.93-1.975-.79-.18.035-.286.127-.442.208-.17.088-.138.166-.317.223-.08.027-.215.125-.215.224.002.115.005.05.012.17-.02.01-.022-.006-.03-.026"/></g></pattern><g id="Layer_23"><defs><path id="SVGID_1_" d="M.723.592h18.5v18.5H.723z"/></defs><clipPath id="SVGID_2_"><use xlink:href="#SVGID_1_" overflow="visible"/></clipPath><path class="st3" d="M.723 9.842c0 5.1 4.15 9.25 9.25 9.25s9.25-4.15 9.25-9.25-4.15-9.25-9.25-9.25-9.25 4.15-9.25 9.25"/><radialGradient id="SVGID_3_" cx="284.935" cy="-150.875" r="5.551" gradientTransform="matrix(0 -.99 .99 0 159.543 292.313)" gradientUnits="userSpaceOnUse"><stop offset="0" stop-color="#1F6AB2"/><stop offset=".756" stop-color="#1F6AB2"/></radialGradient><circle class="st4" cx="9.972" cy="9.842" r="5.503"/><defs><path id="SVGID_4_" d="M.723.56h18.5v18.5H.723z"/></defs><clipPath id="SVGID_5_"><use xlink:href="#SVGID_4_" overflow="visible"/></clipPath><path class="st5" d="M5.09 3.346l1.105 1.362-.404.33-1.105-1.364-.45.365-.293-.364 1.284-1.04.35.315zM8.545 3.484l-.462.276-.707-.572-.133.05.272.714-.48.184-.792-2.076.682-.26c.473-.18.837-.057 1 .37.11.286.053.53-.138.728l.758.586zm-1.52-1.278l-.156.06.23.604.15-.057c.206-.08.287-.233.21-.432-.072-.19-.226-.253-.435-.174M9.89 2.64l.038.815-.52.024-.037-.81-.78-1.32.547-.105.495.903.404-.92.54-.026zM11.793 3.77c-.638-.18-.864-.727-.677-1.387.188-.662.697-1.003 1.318-.827.247.07.437.19.57.332l-.198.443c-.123-.145-.277-.276-.484-.334-.347-.098-.593.126-.707.525-.114.404-.02.735.328.834.11.03.196.032.29.01l.108-.383-.348-.098.053-.41.842.24-.295 1.04c-.25.086-.522.096-.8.018M13.748 4.765c-.536-.39-.56-.98-.156-1.535.406-.557 1.002-.7 1.523-.32.208.15.344.33.42.508l-.34.347c-.064-.18-.164-.355-.338-.482-.29-.212-.6-.086-.844.25-.247.338-.272.682.02.894.092.067.172.097.27.108l.232-.32L14.24 4l.192-.365.708.515-.637.874c-.265-.006-.522-.09-.755-.26M2.197 12.92l2-.963.566 1.173-.397.19-.344-.713-.366.176.263.545-.38.258-.293-.607-.432.208.357.74-.398.19zM3.96 14.575l.35-.305.544.623-.35.305zM5.92 17.162l.477-.773-.616-.38-.476.77-.44-.27 1.166-1.89.44.27-.435.708.616.38.437-.707.44.273-1.166 1.89zM8.926 18.18l-.065-.502-.704-.133-.23.425-.496-.094 1.152-2.053.56.106.313 2.26-.53-.01zM8.73 16.43l-.375.715.463.088-.088-.802zM11.877 18.01l-1.043-1.166.232 1.31-.474.083-.387-2.188.495-.088.974 1.09-.216-1.224.473-.084.388 2.187zM14.164 17.098l-.628.377-1.144-1.904.615-.37c.623-.373 1.18-.186 1.52.38.34.565.242 1.154-.363 1.518m-.947-1.524l-.16.097.702 1.17.16-.096c.317-.19.41-.486.163-.894-.24-.4-.562-.458-.866-.276M16 15.694l-1.703-1.427.837-.998.338.282-.51.61.31.26.39-.465.39.24-.43.516.367.308.526-.628.338.284zM17.465 13.633l-2.044-.87.204-.477 1.605.684.25-.59.467.123z"/><path class="st6" d="M3.496 10.82l-.772-.56-.772.56.294-.907-.77-.56h.953l.293-.91.296.91.952-.002-.77.563zM3.897 7.348l-.374-.878-.95.084.72-.627-.376-.878.82.49.718-.628-.212.93.818.49-.95.086zM18.04 10.82l-.77-.56-.773.56.296-.907-.773-.562.954.002.296-.908.294.908h.955l-.773.56z"/><linearGradient id="SVGID_6_" gradientUnits="userSpaceOnUse" x1="13.325" y1="11.392" x2="6.02" y2="11.392"><stop offset="0" stop-color="#5D5D5F"/><stop offset=".035" stop-color="#6B6B6D"/><stop offset=".154" stop-color="#979597"/><stop offset=".27" stop-color="#B9B6B9"/><stop offset=".379" stop-color="#D1CED1"/><stop offset=".479" stop-color="#E0DCDF"/><stop offset=".562" stop-color="#E5E1E4"/><stop offset=".803" stop-color="#E5E1E4"/><stop offset="1" stop-color="#5D5D5F"/></linearGradient><path class="st7" d="M13.105 14.068c.25 0 .453-.203.453-.452V9.168c0-.25-.203-.452-.453-.452H6.887c-.25 0-.452.203-.452.452v4.448c0 .25.202.452.452.452h6.218"/><path class="st8" d="M13.105 14.068v.005c.253 0 .458-.205.458-.457V9.168c0-.253-.205-.457-.458-.457H6.887c-.253 0-.458.206-.458.458v4.448c0 .252.204.457.457.457h6.218v-.01H6.887c-.124 0-.235-.05-.316-.13-.08-.082-.13-.194-.13-.317V9.168c0-.124.05-.235.13-.316.082-.08.193-.13.317-.13h6.218c.124 0 .236.05.316.13.082.08.132.192.132.316v4.448c0 .123-.05.235-.13.316-.08.08-.193.13-.317.13v.006"/><path class="st6" d="M16.57 7.294l-.373-.878-.95.084.718-.627-.374-.878.82.49.72-.627-.214.93.82.49-.952.085z"/><g><defs><path id="SVGID_7_" d="M9.122 12.222c-.186.055-.375.102-.568.14-.646.12-1.31.08-1.955-.043v1.305c0 .146.118.264.263.264h6.22c.144 0 .263-.12.263-.265 0-.106-.003-1.46-.003-2.46-.1-.018-.2-.032-.3-.035l-.144-.003c-1.374 0-2.51.72-3.778 1.095"/></defs><clipPath id="SVGID_8_"><use xlink:href="#SVGID_7_" overflow="visible"/></clipPath><linearGradient id="SVGID_9_" gradientUnits="userSpaceOnUse" x1="-202.382" y1="538.162" x2="-201.984" y2="538.162" gradientTransform="matrix(0 6.93 6.93 0 -3719.608 1413.682)"><stop offset="0" stop-color="#808187"/><stop offset=".791" stop-color="#FFF"/><stop offset="1" stop-color="#FFF"/></linearGradient><path class="st9" d="M6.6 11.127h6.746v2.762H6.6z"/></g><g><defs><path id="SVGID_10_" d="M.723.56h18.5v18.5H.723z"/></defs><clipPath id="SVGID_11_"><use xlink:href="#SVGID_10_" overflow="visible"/></clipPath><path class="st10" d="M10.37 11.306v1.097c0 .21-.167.376-.374.376s-.376-.168-.376-.377v-1.097c-.13-.108-.213-.27-.213-.453 0-.325.264-.59.59-.59.323 0 .587.265.587.59 0 .182-.083.345-.213.453"/><path class="st11" d="M10.37 11.306h-.004v1.097c0 .103-.042.196-.11.263-.066.067-.158.108-.26.108-.102 0-.195-.04-.262-.108-.067-.067-.108-.16-.108-.263v-1.1h-.002c-.13-.108-.212-.27-.212-.45 0-.16.065-.307.17-.413.107-.105.253-.17.414-.17.16 0 .306.065.412.17.106.106.17.252.17.413 0 .18-.08.342-.21.45h-.003v.003h.006l.004.004c.13-.11.215-.273.215-.457 0-.33-.267-.594-.594-.594-.164 0-.313.066-.42.173-.108.107-.174.256-.174.42 0 .184.084.348.215.457l.003-.004h-.005v1.097c0 .106.043.2.112.27.07.07.164.112.27.112.104 0 .2-.043.268-.112.068-.07.11-.164.11-.27v-1.097h-.004l.004.004-.003-.004z"/></g><g><defs><path id="SVGID_12_" d="M7.283 7.276v1.957c0 .214.254.39.566.39.31 0 .564-.176.564-.39v.006-1.964c0-.618.713-1.14 1.56-1.14.843 0 1.557.522 1.557 1.14V9.24v-.007c0 .214.255.39.567.39.312 0 .565-.176.565-.39v.006-1.964c0-1.252-1.206-2.27-2.69-2.27-1.482 0-2.69 1.018-2.69 2.27"/></defs><clipPath id="SVGID_13_"><use xlink:href="#SVGID_12_" overflow="visible"/></clipPath><linearGradient id="SVGID_14_" gradientUnits="userSpaceOnUse" x1="-231.236" y1="580.689" x2="-230.838" y2="580.689" gradientTransform="matrix(13.496 0 0 -13.496 3128.06 7844.318)"><stop offset="0" stop-color="#5D5D5F"/><stop offset=".013" stop-color="#6B6B6D"/><stop offset=".057" stop-color="#979597"/><stop offset=".1" stop-color="#B9B6B9"/><stop offset=".14" stop-color="#D1CED1"/><stop offset=".177" stop-color="#E0DCDF"/><stop offset=".208" stop-color="#E5E1E4"/><stop offset=".803" stop-color="#E5E1E4"/><stop offset="1" stop-color="#5D5D5F"/></linearGradient><path class="st12" d="M7.283 5.005h5.38v4.617h-5.38z"/></g></g></svg>